<svg xmlns="http://www.w3.org/2000/svg" viewBox="0 0 164.32 286.55"><defs><style>.cls-1{fill:#878787;}</style></defs><g id="Layer_2" data-name="Layer 2"><g id="Philippines"><path class="cls-1" d="M65.05,256.15l-.07.13.19.18.07.11v-.21l-.11-.11,0,0Zm20.78,2.64h0l-.14,0v-.14l-.08-.2-.12,0-.11,0-.2,0-.11.12,0,.14.07.13.18,0h.08l.09.08,0,.09-.11,0,.11.06.3-.11.29-.11-.11,0Zm-68-.29,0,0h0l0,0Zm1,.45,0,0,.21-.15-.13,0Zm.12.69h0Zm59.25,3.79-.07-.05.07,0-.09-.09.1-.05L78.2,263l-.14,0-.2.26-.08.18-.07.17-.06.11-.05,0h.24l.17-.14,0-.06.09,0Zm-24.93.65,0,.1.1.19.19.39.07-.11,0-.18-.14-.13-.06-.11,0-.12h0Zm-1.39,1.81.07-.09-.06,0-.12,0-.1.05h-.14l-.1.06-.18,0,0-.25,0-.12-.14,0v.31l.13.17.13,0,0,0h.08l.13,0h.09l.09,0v0l0,0Zm-.85.19,0,0v-.17l-.08-.12h-.08l-.17-.06h-.14l-.1.12.06,0,.15,0,0,0v.05l0,.07,0,.09L51,266Zm-.58-.25,0,0,0,0Zm8.24,1.41.07.05.06.08,0,.07,0,0h0l-.06,0v-.07l0-.08,0-.05h-.08l0-.07,0,0,0,.06.06-.09-.25-.18.07.36.14.2.17.07.06-.05,0-.16-.09-.13Zm-12.05.2-.15.1.24-.09.13-.09,0,0ZM56.43,270l-.08,0v.16l0,.06.2-.09v-.1l-.09,0Zm7.75,2.55-.11-.12-.15,0v.13H64l-.06-.05.08,0,.1.07.11.25,0,.19-.08.08.09.09,0,0,0-.49Zm-2.45.62.09-.24-.06-.2-.16.19Zm-3.48.65-.26.23.19,0h.28v-.19Zm-1.06.28-.09,0-.11,0,0,.07h-.07l-.06-.07-.07.1.1.22.13,0,.21,0,.18-.08.11-.1-.11-.09-.12-.06Zm-1.48.5-.24,0,.05.12.06.09v.08h0l0,.06h.09l.16.17,0-.33-.07-.15Zm2,1.74-.1.08.06.18,0,.13.13,0,0-.11.09-.13-.07-.14Zm-.24.43-.08.09V277l0,.09,0,.08h.08l0,.19.07.05v.11l0,.06h.07v0l.05,0v-.1l0-.13.06-.13,0-.06v-.09l0-.08,0-.06.09,0-.14-.15Zm5.88.27-.2-.14-.18,0L63,277l.13.11,0,.05h.14l.11-.06h0ZM61.84,277l-.18,0-.07.14.08,0v-.07l0,0,0,0h.14l.12.06,0-.06v-.09l.06-.06.06,0,0-.05Zm-4.09,0,0,0,0-.05Zm2.46.52-.06-.08-.23-.06,0,.12.1.12v.21l.15.13,0,0h.07l0-.14,0-.08v0l-.07-.08ZM57.4,278l-.12.07v.12l0,0v.07l0,.07,0,0,0,.05,0,.05.1.11.14.1.18-.6,0-.18Zm-.3.59h-.05l-.13,0-.09.08-.18.18-.22.09-.08.11.09.18.12.08.22-.12.18-.06.11-.1.09-.18,0-.08-.06-.19Zm-1.74,1.32-.24.19-.12.08-.06.08,0,0,.1.13.26.07.14-.08.08-.14.07,0,0-.08-.1-.08ZM52,280.4l0,.07,0,0-.08,0h-.1l0,0-.09.07,0,.09,0,.09.06.06v.06l0,.07,0,0-.06,0V281l-.07.1.06.06,0,.06,0,.05,0,.08.09.07.12,0,.08,0,.07-.15,0-.19,0-.11,0-.09.1-.06,0-.11,0-.19Zm33.57-29.31v-.19l-.24,0-.2.1L85,251l-.22.34,0,.24.1,0h.27l.31-.32-.06-.17.07,0Zm-21.61,5.63v-.12l0-.18,0-.08,0-.1h-.07l-.07,0-.23.06-.18.11-.18.15,0,.2.19,0,.19.08.06,0h.12l.14,0,.06,0Zm2.46,1.73.1-.05.12-.07.1-.26-.17-.23h-.08l-.06,0h0l0,0-.12.05-.09.09v.11l0,.07.06,0h.07v0l0,0,0,.05.06.06,0,0,0-.06h.06v.08l-.1.07-.07.06-.06.07h-.06v-.07l-.06,0,0,0-.07.13,0,.12Zm-3.3.45,0-.12v0h0l0-.09,0-.07,0,0,0-.06,0-.05,0-.05,0,0v.29l-.05.1,0,0,0,.07-.06-.09-.06-.14-.08,0-.14.14,0,.08h-.09l0,.05-.09.2.18.24.13,0,.08-.07.16-.14L63,259Zm5.43,1.75.15-.12-.24-.27-.18-.05-.08,0,0,.08-.08.15.07.19.12.14,0,0,0,0,.06,0,0,0,.07-.07,0-.07-.08,0h0l.07-.05,0-.06h-.13l-.09.07,0-.06,0,0,0-.06h0v.06h.11l.1,0,.1,0-.09.14Zm-1.09.25.15-.06.1,0-.08-.14-.15,0-.32.21L67,261l-.12.2,0,.08,0,.07h0l.07,0,0,0,0,0,0-.05.06-.1.09-.05.06-.05h.08l.07,0,.06-.06Zm-8-.15-.07,0-.14,0-.15.08,0,.06-.09,0-.08.08,0,.09.08,0,.1,0v.08l.08.05.14.08,0-.09,0,0,.1-.09v-.14l0-.07h0v-.06l0,0h-.07l0-.08.16,0h0v.05l-.05,0V261l0,0,0,.1,0,.07h0l-.05.07.08,0,.07-.12.08-.21v-.12l-.1,0Zm7.63.87.21-.05.13-.16,0-.07-.09,0h-.09v-.12l-.06,0,0,0,0,.07,0,.06v.1l0,0h0l-.06.05,0,.06.08,0H67Zm-6.17-.39,0,.18,0,.25.11.12h.11l.17-.16,0-.1-.16-.22Zm-9.44,3.86.15,0,.07,0V265h0v-.07h0l0-.21-.2,0-.16.14,0,0v0h-.07Zm-.75.91.11,0,0,0,0-.06,0,0-.06,0h-.09l0-.06-.07.09ZM68.92,157.59l0,0h0l.12.11.07.08-.1-.2.11-.12.16.08-.11-.26,0-.08-.12-.24-.16-.05-.13.37,0,.17.14,0,.08.06H69Zm15.61,3.76,0,0v-.12l-.19-.09-.16.14.2.33.26.41,0,.12h.14l0-.09.07-.06,0,0v-.07l-.07,0v0h-.08l-.06,0v0l-.1-.08,0-.08.06-.18Zm-35.74.49,0,.16,0,.13,0,0,.07-.08.06,0,.15-.12.18-.32.1-.05h.07l.17-.07-.12-.09-.22,0-.25.26Zm6,8.86.07-.11.07,0h.2l-.09-.13-.09-.12-.19.1-.13.41.1,0Zm11.14-.06v-.08l-.09,0-.06.07,0,.17.17.26.11-.11,0-.18-.13-.12Zm-12.4,1-.08,0-.15-.09h-.21l0,.07h.17l.06,0-.07.11,0,.19.29,0,.05-.16,0-.15Zm10,1.15h-.13l-.16.16,0,.09,0,.05,0,0,.09,0,0,0v.09l.09.09.13-.08.07,0,0-.13,0-.11v-.16Zm-16.28,5h-.07l-.08,0,0,.08.14.21h.06l.14-.13,0-.11Zm20.79.9.14-.07-.07-.19-.09-.12-.3.16.16.26Zm33.25-60.15.11-.06.05-.09.17,0,.05,0,0,.09.06,0,.14-.07v-.07l0-.11.11-.07H102l0-.09-.07,0-.07,0,.12-.16,0-.16h-.11l0,0,0,.05-.11.08,0,.15-.14.14h-.06l0,0,0,0v.13h-.1l-.1,0-.06.06v0l-.07.08,0,.08.16.11Zm-14.91.08-.07-.06-.06,0v.19l.08.25,0,.32.07-.13,0-.16.09-.11-.07-.11v-.14ZM108,124.46l0,.11.1.2.06,0v-.09h0l.09-.13v-.12l-.09,0v-.09l-.31-.21-.22.08.18.18Zm8.53,2.89,0,.12v.06l-.07.1,0,.05v.11l0,.11h.08l0,0,0,0,.14.33.08,0,.09-.13-.07-.15,0-.16,0-.33.07-.2-.06-.17V127l.1-.08,0-.13-.27,0-.07.06,0,.16,0,.24-.14.06ZM87.7,134.59l.21.09.14.09,0-.29-.13-.06h-.16l-.08,0,0,.05,0,.08v.07Zm.92.12.21.26-.06-.43Zm9.45,2.77-.15,0,0,.35.12.34.07-.13,0-.31v-.15Zm2.49,3.72.14,0,.06.05h.18l0-.09,0,0-.24-.1-.24-.26-.16-.1.12.22Zm25.73,8-.08,0h-.08l-.26-.18-.09,0,0,.14.09.11v.1l0,.24.08.1.26.3.07,0,.1-.06,0-.13,0-.14-.06-.25-.1-.14h0v-.09Zm-.36,1.51,0,.07.06.11.13,0,0-.11.1.19.09.06.13-.21-.1-.19-.11-.15-.17-.13H126l0,.08,0,.05,0,.08Zm2.2.72.15.3.26-.2-.11-.12,0-.1,0,0-.08-.09-.16-.18-.16,0-.06.17.13.19Zm-1.37-.05,0,.09h-.05l-.16,0-.42.2H126l-.08,0-.78-.6L125,151l-.2.05-.17.16-.12.21,0,.2,0,.24,1.13,2.55.82,2.84.28.48.41.23,0,.08h0l0,0,.37.34.79,1,.81.55.49.26.53-.06.67.16.68.27.84.89.08.17.06.26,0,.46.15-.11h.13l.11.08.09.15-.27.17.16.15.3,0,.27-.3.26,0,.24.17.07.35-.09-.1-.09-.05-.09,0-.07,0-.24.48.07,0,.17.08h-.24v.12l.67.22,1,1.45.61.34.29-.09.71-.4.29-.1.38.09.3.22.17.34,0,.41-.28-.15-.08-.08-.27.37-.37.39-.09.23.05.25.08.27v.27l-.12.23-.26.32-.28.27-.21.12h-1l.23.27-.07.1-.23,0-.28.08-.17.14-.13.17-.14.16-.27.12.14.26.15.2.19.15.23.09.3,0,.15-.08.26-.55.09.26.16.23.2.19.23.16.11,0,.25,0,.12,0,.33.29.13.07-.06.11,0,.11,0,.11v.14l-.13,1.39.15.49.7.13.77-.05.77.05.67.29.46.65.16.74.1.92.08.23.1.21.14.14.23.1.09-.05,0-.12.2-.3.08-.15.08-.13.52-.21.18,0,.09.12.09.08.61.1.18.1.4.37.15-.22h.18l.12.18,0,.28.26-.13.18-.16.32-.37H145l.31.22.46.43.06-.21.08-.62,0-.13.2,0,.12-.09.11-.05.2.09.11.15,0,.19.07.17.21.07.17-.07.58-.35.12-.12.26.13.24.2.08.09.25.12.1,0,0,.08v.41l0,.05,0,0,.15.57.16.11.39.22.15.13.32-.51-.33-.55-.53-.57-.28-.54-.09-.49-.23-.26-.32-.18-.78-.58-.23,0v.26l.25.32-.54.2-.46-.06-.29-.34V174l.19-.35,1-.78.13-.22,0-.28V172l-.1,0-.21-.18-.18-.21,0-.1-.21-.06-.31-.24-.17-.06-.13-.09-.07-.19-.09-.42-.15,0h-.1l-.09,0-.14,0,.18-.26v-.28l-.11-.27-.38-.55-.07-.16-.07-.25v-.43l-.05-.11L145,168l-.11,0-.1,0-.07-.16,0-.24.13-.21.05-.17-.21-.09.17-.27.22,0,.15-.09,0-.43-.16-.64-.17-.33-.2,0-.33.14-.05-.3.17-.31.45.16.11-.08.06-.16-.05-.17-.44-.4-.09-.12,0-.18,0-.53-.22-.5,0-.1,0-.37,0-.34.11-.29.31-.39.21-.38.14-.18.57-.47v-.19l-.15-.23-.23-.23-.15-.12,0-.06,0-.12,0-.06-.56.05-.18-.09,0-.32.13-.16.21-.09.47-.11-.1-.12-.1-.1-.12-.07-.15-.06.17-.06.4-.07.13-.11.29.14v-.19l-.18-.48-.38-.46-.08-.19-.25,0-.6-.45-.32-.16-.64,0-.17-.08.1-.32-.33.25-.17.07-.19-.08.08-.11v-.2l0-.17-.19.07-.52.3.06-.3.06-.1.12-.08-.36-.31.09-.43.3-.38.32-.19-.27-.23-.13-.15-.19-.44-.15-.19-.36-.22-.19-.19,0-.3-.4-.35-.84-.54-.42-.41-.14-.07-.15,0-.18.07-.16,0-.48-.15-.16.08-.06.36-.08.11-.17.14-.2.11-.13.06h-.21l-.13,0-.09-.06-.1,0,0-.09-.31-.19-.36-.15-.16,0-.11-.27-.25,0-.29.18-.23.11-.15-.09-.18-.2-.24-.21-.31-.1V151l.07.2.16.15.1.17-.15.24-.17.11-.15.06-3.21.25L130,152l-.37-.08-.39,0-.08,0L129,152l-.08,0,0-.06,0-.05-.18-.11-.07,0-1.07,0-.15-.05.09,0,0,0,0-.08,0-.12-.16-.06-.08,0-.08-.05-.07-.19L127,151l-.13.1Zm-5.32,5.25.2-.46-.27-.11-.08.18.1,0,0,.15v.17Zm-7.34,6.1h0l-.11,0,0,.25,0,.15.22.16.07-.31,0-.24-.07,0Zm-9.26,1.2.19-.13.11-.26-.07-.08-.23,0Zm3.53,4.51,0,0,.21-.21.14-.08,0,.08,0,0,0-.17-.06-.09,0,.09h-.16l-.28,0-.11.15.14.11v.17Zm9.47,3.89-.13.38,0,.35.07.38.23-.13,0-.36.1-.14v-.22l0-.34ZM46,173.48l0,.13.22.15,0-.3.11-.11,0-.09.07-.09.06-.21v-.14l0-.14-.08,0-.13.09v.09l-.11.11-.14,0-.14.07v.25l0,.18Zm59.31.3,0,.2.06,0,.12-.18,0,0v0l0,.08h.07l0-.23.13-.1v-.07l.09,0,.06-.12.06-.05,0-.09-.12-.11,0-.06-.1.07-.12,0-.1-.17h-.12l0,0,0,.1v.09l0,.16,0,.1-.13.23Zm-64.71.84.11.1h.16l.12.1.12,0,.13.07-.06-.18,0-.05v-.08l0-.17,0-.06-.1.12h-.08l-.15-.15,0-.19,0-.12-.11,0v.18l0,.08v0l0,.05,0,0v.12Zm5.93,1.65,0-.07-.05-.06h-.3l-.07,0v.07l0,.09.06.11,0,.07,0,0h.06l0,.07v.13l-.07.12,0,.13.08-.07.15,0,.07,0v-.1l0-.08,0-.1,0,0-.08-.06Zm-.1.77-.07,0,0,.08v.12l-.14.1,0,.42.11-.12.15-.18.05-.07v0l0-.16-.06-.11Zm-7.09,1.7,0,.15.06.08.06,0,.06.05.08.06.09.09.19-.15-.05-.1v-.14l-.1-.1,0-.11.07-.12.12-.09-.05-.11v-.08l.06-.09-.08-.11h-.15l-.06.05,0,.08,0-.08-.08,0-.16,0v.1l0,.11,0,.09.06,0v0l-.11.11-.05.15.09.08Zm108.09-.1.19.11.28-.13,0-.29-.45-.16-.26.06,0,.14v.07Zm5.61,3.92.16.1h0l0-.26-.31-.2-.06.13.09.11Zm-116.15,3,.08,0,0,.09-.09,0,0,.13-.06.14h0l0-.06h0l.1,0,.14-.09.16-.16h.08l.06,0,.18-.08h.16l0,.1.07,0h.1l.09,0,0-.06-.06,0H38l-.07-.07-.12,0-.1-.06v.07l-.07.07-.11,0v-.05l0,0v-.21l-.09,0-.18.17-.09-.09-.19,0,0-.11-.15.14,0,.09Zm60.54,2.35.09,0,.13-.11.1,0H98l.07,0v-.1l0-.08-.09-.06-.33-.16-.2.17,0,.11v.28Zm47.85-.06-.16-.12-.18-.09-.17-.07-.09,0,0,.11,0,.07v.06l.1.09,0,.09.07.18.12,0h.18l-.06-.16.08-.1Zm-24.63,3.57.09-.07v-.06l0-.16,0-.12.11-.11,0-.13.05-.15-.08-.09-.18.08-.07.05h-.06l-.05.06.08.08-.11.08-.05.06,0,.08,0,0h0l-.19,0-.1.12,0,.12.12-.15.15-.06.16,0,0,.08Zm3.08.61h-.1l-.08,0h-.21l-.2.14.1.18.12,0h0v.13l.11,0,.21-.08.31-.18.1-.13h0l.09,0,.08-.07,0-.09-.16,0-.18.05h0ZM138,197.26l.06,0,0-.27,0-.21v-.1l0-.16-.1-.2,0-.16h-.17l.07.21,0,.13.09.26v.22l-.07.08Zm7.53.21.16.21h.18l.07.14H146l.21-.05-.15-.11-.21-.19-.05-.18-.1-.05,0,0-.08,0v-.05l0,0V197l-.06,0v-.07l-.07-.05,0,.15,0,.13,0,.09-.05.17Zm3.89,1.73-.06,0-.19-.08H149l0-.17.08-.13-.18-.12v.26l-.11.1-.08,0-.08-.07v.17l.06.24v.11h.15l.06,0,.07,0,0,.09.13.12,0-.19.12-.16ZM148,200.29l0-.11-.06,0-.07,0,0,0h-.14l-.07.08-.08-.05-.07-.09-.17.11v.22l0,.09.19,0,.07,0,0-.07.08.11v.05h.07v.45l.26.16,0,0,0,0H148l-.08-.22v-.05l0-.17,0-.13,0-.1-.07-.08.06-.06ZM25.44,208.9l-.06-.3-.09-.06-.1-.13-.1,0-.07.18,0,.25-.06.08,0,.18v0l.27,0Zm36.29-89.23.25-.08.11,0h0l-.27,0-.13.06-.24-.07-.12,0,0,.18.06.06.23,0Zm-9.39,8.9.18.09.2-.15-.18-.28-.34-.12-.11.07,0,0v.17l.12.09Zm30-113.84.13.13.08,0,0-.13.1-.15-.13-.37-.19.33ZM77.46,30.6h0l0-.13,0-.09-.13-.25-.06.23,0,.11ZM87.74,46.48l0,.52.48-.25.1-.09v-.19l.13-.25v-.29l0-.08-.07-.12-.08,0-.12,0-.1,0-.11.08-.12,0-.05,0-.1.18v.11l.15.21Zm-37.51,38h.13l.15.06.07.11.23,0,.2.12.08-.07v-.22l0-.15-.37-.49-.13,0h-.15l-.15.1,0,.16,0,.28Zm36.62,27.14.18-.09-.23-.27-.31-.17-.28,0-.09,0-.09,0-.06.07.16.33v.07l.09,0,.13,0,.1,0,.08,0Zm-4,9.36-.35.15,0,.13,0,.22.07.14.09.11,0,.17.07,0,.1-.1,0-.07,0-.09.26-.41,0-.13-.29-.1Zm42.55,6.34.16,0,.19-.13h.06v-.07l-.42-.49-.06,0v.12h-.14l-.12.15.07.17Zm-43.3,1,.06.08.16-.15,0-.3-.13-.14v-.06l0-.15-.12-.16-.4-.15h-.14l-.07.06.07.18,0,.08-.08,0-.09.07.06.33.11.22.14,0,.32-.22.11.07Zm-24.78,1.22-.09-.21,0,0-.09,0-.08,0-.16-.1-.18-.07-.08.29-.14.09-.16,0-.06.09.08,0,.07,0,0,.09,0,.15.14.11.31.15h.25l.28-.31,0-.08,0-.09ZM57,132l.12.12.79.34.22.14.13.13.08,0,.16,0,.11,0,.16,0,.06-.18-.08-.25,0-.06-.05,0-.34,0-.17-.08-.12-.11-1-.23Zm29.59,13.14.16.19H87l.17-.12.11-.22.07-.23v-.2l-.05-.12-.44-.08-.43.06-.12.09,0,.1,0,.09v.05l.06,0,.14.05.09.1-.05.14Zm-.54,2.05,0,.07.11,0,0,.08.11.09.16.05.21-.1.2-.24.13-.37v-.16l-.13.1-.15,0-.24.11-.16,0-.19.12Zm51.41,2.69.14.12,0,.12-.1.09-.11,0,0,.09.12.16.17.09.41.05.12,0,0-.13-.05-.1-.11,0-.08-.23,0-.28-.18-.56-.13-.05-.19,0-.12,0-.09.13,0,.11v.06l0,.07v.11l.12.08Zm-.62,1.22.09.1.1,0,.21.21.11,0,.2,0,.16-.09.1-.11,0-.09-.1-.2-.13-.06h-.28l-.32-.2-.08-.1v-.19l0-.17-.19-.19-.17-.06,0,.41Zm-12.59,2.35-.16-.22-.17-.13-.09.13v.18l.17.69.22.5.2.14.1-.17v-.26l0-.26Zm-39.21,6.9,0-.09v-.31l-.11-.33-.15-.18h-.23l-.18.1-.12.12v.29l.1.27.32.19.34.06Zm42,.91-.17-.06-.18.08,0,.23,0,.14.15.09h.12l.06,0,.1-.06.09-.14v-.15ZM78.51,162l-.18-.2-.13-.08h-.06l-.17.07V162l.08.24-.15.44v.1l.08.13.14.1.34-.07.18-.1v-.26l-.08-.25v-.12Zm46.91-.23-.21,0-.09.05H125l-.17.22,0,.08,0,0-.21.13-.06.07v.08l-.05.06.06.06.1.19.11,0,0,0,.16,0,.16-.14.06-.17.31-.42,0-.13,0-.09Zm1.45.82,0,.17,0,.14.12.07.37.13.16,0,.14-.12,0-.38-.08-.21-.06-.06-.1,0-.2,0-.21.16Zm-1.75,1.66-.17.09-.17.17,0,.2.15.25.18.14.24.07.19-.09.16-.24,0-.34-.16-.23-.21,0Zm-70.5.92-.1-.1H54.4l-.06,0-.13,0-.14-.16,0,0v.1l.08.24,0,.07h.14l.33.15.11,0,.13-.07.08,0H55l.08,0v-.12L55,164.9l-.11-.07-.08,0h-.14v0l.1.15,0,.14-.06,0ZM135,166.78l-.05-.14-.09-.09-.15,0-.14,0-.11-.13-.11,0-.12,0-.22-.09-.05,0,0-.07,0-.1-.05-.08,0,0,0,.23,0,.15.21.31,0,.07V167l.08.18,0,.25.08,0h.1l.12.05.08.08,0,.07.27-.09,0-.06,0-.14-.1-.27.3-.22Zm-28.28,2.62v.08l-.06.11,0,0-.09-.06h-.19l-.11.15v.12l-.28.09,0,.08,0,.13.12,0h.1l0,.09.16.09.31-.1.14-.18v-.2ZM68.07,176l.15,0,.28-.34,0-.16-.07-.13h-.12l-.61.27,0,.12,0,.13.14.11Zm60.79,5.68-.6.72v.33l.38,0,.37-.26.1-.15.09-.14,0-.08V182l0-.13.11-.14,0-.19-.15,0ZM2.47,225.45l-.28,0-.1.08,0,.33.11.14.4,0,.17-.07.06-.16-.13-.17ZM148.8,247.39l-.2-.08h-.17l-.08,0-.09.1-.09.13,0,.12.13.19.08.19.12.16.25.15.21,0,.09-.17v-.22l-.08-.23ZM82.72,260.82l-.19-.06-.18.25-.06.19,0,.09.06.09.07.06.13,0,.3-.25,0-.12Zm0,.86.15.05.22-.05.14-.12,0-.11v-.07l0-.08-.11-.08-.13,0-.35.22,0,.14ZM76,263l-.15-.07-.16,0-.31.29-.08.16,0,.16.13.08H76l.13-.12v-.17l-.06-.21Zm4.86.08-.1,0-.14,0-.09,0h0V263l0-.05.08,0,0-.07-.2-.08h-.14l-.1.28,0,.05h.11l.06,0,.05.06v.09l-.11.16-.1.1-.1,0-.1.05-.11.14v.08l.16.08.48-.11.06-.17.19-.22.34-.16v-.07Zm-2.07,1.11-.17-.09-.1,0-.27.42.11.25.2.06.18-.17.14-.19v-.12l-.05-.07ZM69.67,269l-.42.16-.13,0H69l0,.13.15.13.25.12h.1l.13-.09.07,0,.07,0,.11-.12,0-.18-.09-.1Zm-4.34,2.12-.14,0-.42.13-.1.09-.06.27-.15.21,0,.19.15.22.2.13h.16l.23-.3.16-.09.12-.25v-.07l0-.13v-.21Zm79.89,1.47-.08-.09-.17-.13h-.18l-.06.16,0,.11h-.09l-.13.13,0,.14.11,0h.11l0,.05-.09.05-.15,0v.08l0,.07-.08.11,0,.06.1,0,0,0-.08,0v.05l.08.06,0,.11,0,.26.07.13.16,0,.28-.53,0-.17.13-.65Zm-83.43,1.32h.12l.13-.05.05,0v-.08l-.22-.32-.1-.09h-.13v.08l.14.1h0l.15.18v.05h-.07l-.08-.07h-.06v.08l-.07,0-.06-.08-.06,0h0v.1l.07.09Zm-5.35,3.82.08-.09.23,0,.28-.22v-.09l0-.08V277l-.06-.17-.08-.1-.11,0-.08,0-.09-.12-.1-.05H56.4l0,0v-.09l0,0,.15.13.13,0h0l-.28-.26-.12,0-.1.15-.07.18,0,.31-.21.39v0l.09,0,.09-.06,0,0-.08.08,0,.06v.08l.09,0,.19,0,.14.08Zm-5.61-.95.07-.12,0-.06-.06.13Zm-9,7.61,0,.09-.05.06,0,.09-.17.17,0,.07-.07.1,0,.11h.08l.08,0,.06,0,0,.12,0,.2-.07.16-.08.11,0,.11,0,.08v.09l-.06.14,0,.12.09.07.1,0,.3-1.7,0-.21ZM90.78,48.75l.07.09.05,0Zm-17.62,153,0-.05v-.11l-.15.15-.09.2-.09.17-.19.07-.08.08-.17.36,0,.14.22-.12.19-.19.38-.52v0l-.08-.06,0,0ZM44.47,175.81l.23.1.1,0,.35-.26.3-.28.08-.15-.07-.14-.26-.18-.15,0-.06.06-.05.08-.07.07-.31.14h0l-.06.14,0,.24Zm.86,1.09-.7-.28-.05.24.05.65.1.08.19.11.21.18.07.28.15-.11.13-.07h.11l.09.07h.12v-.25l-.05-.25-.1-.23-.13-.21ZM1,228.2l.09.17.17.16.15-.15.17,0,.17,0,.15-.08v-.11l-.18-.53-.21-.21-.31.12-.53.44.22.1Zm3-1.52-.37,0-.22,0,0,.18.16.22.39.12.35-.1v-.19Zm75.12,25.79-.13.3-.14.16-.14.08.12.19.2.25.11.24,0,.37.1.14.12-.1.09-.36v-1.17l-.21-.26ZM51.29,214.65v0l-.06,0,0,.05Zm-.2,0,0,.07h0Zm.1-.18,0,0h0v0h0v0Zm0,.1h0v0h0l0,0,0,0ZM85,.07,85,0l-.06.11,0,.17Zm-.33.82-.08.16.11,0ZM70.29,134.54l.1-.12-.06-.44-.08-.14-.15,0-.18.09-.15,0-.11-.05h-.14V134l.48.44ZM81,144.66h-.07l-.24,0-.2,0-.11.21,0,.19,0,.07.12.1.12.16.08,0,0,0,.08.09H81l.08-.07,0-.07,0-.06,0,0h.07l.08-.09,0-.17-.1-.19Zm36.13-7.37-.17,0h-.09l-.12-.12-.28-.2-.28-.13-.27-.08.06.21.44.45.37.24.2-.07.18-.21Zm5.4,15.88-.3-.22-.16,0v.19l.07.38.2.4.33.28.23-.15-.09-.44Zm-51.9,5.08.18.07.14,0,.06-.07,0-.19-.21-.38,0,0-.07-.06-.09-.14-.12-.58-.17-.39-.48-.2-.35.47.21.53.31.16.17.24.07.25.1.16.16.08ZM67.16,267.83l-.21.3,0,.54.32.16.25-.2.08-.36-.22-.34Zm-.75,1.41.22-.12.16,0-.06-.15-.32-.17-.2,0h-.27l-.43.19-.18.29,0,.18.15.06.2-.05.32,0ZM48.32,279.73l.07,0,.12,0,.08-.19,0-.22-.06-.18,0-.2v-.23l-.13,0-.26.17-.24.23-.35.59,0,.32.11.13L48,280l.19-.08.07-.11,0-.05ZM49,283l.08-.05.13-.13,0-.25-.14-.29-.35-.15-.11-.15-.19-.08-.19.09,0,.28.14.44.38.29Zm-.1.71-.32.06.11.23.26.12h.26l.14,0-.07-.16ZM77.47,163.54l-.62-.18-.37,0h-.17l-.29.12-.17.2,0,.16.09.05.14-.08.08,0,.07.07.08,0h.1l.18.07.29.08h.38l.38-.17.14-.15Zm45.15-3.79-.21.18-.12.21.07.16.24.1.24,0,.34-.22.18-.15.34,0,0-.18-.37-.13-.41,0ZM113,127.52l0,.17,0,.13h.17l0,.06.08.06.82-.53.11-.22-.1-.21-.09,0-.08,0-.11-.15-.17-.1-.07,0,0,.1,0,.08h.06l0,0,.11.16,0,.06v.11h0l0-.08,0,0-.07,0h-.09l-.08,0h-.11l-.07.06v.14l0,0,0-.07-.07,0h-.07l0,0,0-.1,0,0-.12.22,0,.1Zm-46.92,4.84.59.36.6.13.21,0,.21-.15,0-.24-.15-.11h-.77l-.62-.22L66,132l-.18-.23,0,0,0,.07.16.4ZM133.64,167l-.24-.12-.05-.1,0-.11,0-.1-.06-.08-.08-.07-.57-.35-.18-.18,0,0h-.11l-.17.34v.14l.11.17.07.16.05.22.07.19.16.08.22.08.22.2.17.27,0,.28-.13-.07-.12-.05.25.6.24-.22.11.09,0,.19,0,.06.4.46.13-.06.12-.15.05-.2,0-.41,0-.18.07-.18-.29,0-.18-.1-.12-.14-.11-.18,0-.24Zm16.11,15.75-.28-.3-.22-.86-.38-.16-.37.21-.14.46.09.45.32.2.63.28.17.13.19.2.14.09.17,0h.32l.26,0,.22-.12.09-.19-.17-.25-.23-.1-.54,0Zm2.68,19.29.35.23v.13h-.24v.11h.18l.19,0,.11.09-.1.27H153l.26-.05.15-.11.1-.25,0-.27-.09-.2.3-.67.06-.35-.19-.16-.25-.15,0-.35,0-.4,0-.28-.07.05-.16.08v-.15l0-.09-.09-.12-.3.14-.13.37,0,.4.17.27,0,.12,0,.19v.15l0,.15-.05.06-.07,0-.08.12-.14.37,0,.18.05.15ZM84.59,263l-.46.2H83.6l-.42-.17-.89-.54-.29,0,.13.3.35.38.9.59.18,0,.75-.27.42-.23.1-.07,0-.21Zm-17.67,8.28-.29-.25-.21,0-.2.07-.23.13-.19.16-.07.16.07.17.14.22.19.18.12.08.5.16.3,0,.2-.36-.09-.31ZM83.4,14l-.3,0,0,.09,0,.12,0,.24.2.85h.19l.12-.05.39-.38,0-.29-.24-.35ZM72.35,37.3l.6.57.24-.48-.11-.64-.23-.66-.15-.73-.07-.13-.1-.1L72.37,35l0,.41-.27.75,0,.44.11.39ZM90.41,150.46l-.09.14-.11.36-.07.09-.13,0,0,.09v.11l0,.09,0,.09,0,.06,0,.36.06.32.16.31.27.32.51-.46,0-.61-.24-.65-.3-.54v-.24ZM61.69,259.3l.37-1.16v-.33l0-.15L62,257.5l-.09-.15-.12-.08-.16,0-.15.12-.12.17-.1.37-.24.38-.06.13,0,.16-.11.21-.14.2-.11.07-.23,0-.17.07,0,.12.09.19.2.09.67.09h.24l.17-.08.13-.13ZM26.7,246l-.25-.05-.22,0-.18.08-.2.05-.32-.07-.26.12-.16.12-.08.15,0,.2.13.29.16.12.54.06.45.12h.26l.21-.13-.18-.41v-.18l.29.12.12-.11-.21-.38Zm89.52-71.11-.48-1.38-.11-.19-.14-.05-.23.15-.28.34-.13.21-.06.19.06.4.43,1.09.21.27.06,0,1.11-.12,0-.11-.11-.18-.18-.24Zm-68.93-4.11.19.07.14.07.14.16.11.16,0,.07.18-.08.12-.16.11-.22.15,0,.28.09h.21l-.12.22-.09.24,0,.21.19.15.35-.45.28-.62.11-.67-.16-.62-.15-.1H49.2l-.19.09-.18.12.25.1.06.21-.08.26-.12.26-.07-.14-.08-.07-.11.05-.09.16-.16-.13-.17-.29-.13-.17,0,.51,0,.3-.17.12-.27-.17-.24-.32-.21-.15-.21.3.24.07ZM5.08,224.2l-.19.12-.11-.13.06-.08,0-.05,0-.22-.9.75-.14.19.15.45.42,0,.48-.31.35-.31v-.21l-.06-.13Zm1.73.81v-.48l-.51-.34,0,0H6.18v-.08L6,224.2l-.15.07H5.74l-.14-.08-.08.2,0,.51-.11.23.09.43.06.61.18.38.49-.25.23.1.18-.07.15-.17.14-.2-.18-.44Zm65.68,41.78-.16-.18-.22-.16-.26-.11-.29,0-.18.09-.17.15-.12.21V267l.2.29.26,0,.6-.22.48,0,.1,0,.06-.17-.08-.1ZM43.05,283.56l0-.32,0-.14V283l0-.14-.06-.14-.12-.16-.18-.14-.2-.06-.19,0,.22.48.15.54.1,1.14-.11,1v1.05l.18-.18.5-1.14.07-.25.05-.27v-.31l-.05-.28ZM74.93,160.31l0,.28.13.28.21.17.3,0,.21-.2,0-.27-.06-.3L75.7,160l-.66-.83-.15-.07v0l0,.13-.1.18.06.11.1.11.05.18-.1.35ZM70.4,180.09l0-.25-.13,0-.33.3-.58.36-.13.1-.12.53.29.24.47,0,.42-.1-.11-.31.24-.55ZM56.62,161.94l0-.16-.1-.12-.14,0h-.16l-.77.31-.17,0,.58,1.08.31.85.21.34.18-.13,0-.14-.19-.34,0-.17v-.18l.12-.47,0-.09-.07-.09,0-.11.08-.13.08,0,.18,0,0-.06Zm35.92-48.35-.27.07-.29.14-.38.14-.43.24,0,.27.59.07.36,0,.38-.08.37-.33,0-.26-.11-.1Zm25.94,24.6V138l-.15,0-.13-.06-.1-.08-.7-.23h-.17l-.15.1,0,.07.17.24.07.23,0,.32-.08.29,0,.21.19.35.1.09.17.26h.18l.3-.15,0-.14-.12-.21-.1-.27.08-.32Zm-.13.53h-.06l0,.3.1.23.15.17,1.13.6.19-.11.23,0,.12,0,.23-.05h.05l.23.06.11-.33.12-.18.11-.08.19-.09v0l.17-.12-.12,0-.12,0-.21-.12-.46-.06-.14-.06v.25l-.27-.16,0,0h0l-.27-.16-.07.19-.15.05-.41-.2Zm5,1.63-.2-.3-.33-.17-.68-.2-.25,0-.17.1-.5.18-.32.11,0,.12.5.2.27.06h.38l.21,0,.23.09.59.13.21-.08Zm6.75,52.72V193l-.23,0-.11,0-.1.1-.22.15-.16,0h-.11l-.07.08-.09.1-.11,0-.13-.05-.1.09v.23l.05.2v.14l.07.18.19.13.17-.14.19-.29.24-.08.23.07.14-.13,0-.25v-.26Zm-14.57,10.06.26.07.34,0,.33-.14.67-.49.31-.34.1-.2-.13-.17-.33-.21-.35,0-.66.28-.27.16-.19.15-.11.11-.15.08-.21.05v.07l.19.14Zm28.38,70.36-.24-.08h-.47l-.32.15-.28.37-.14.13v.09l.16.11.13.16.22.07.28-.05.32,0,.21.06h.12l.08-.16,0-.5,0-.22ZM125.74,166.58l.1.16.37.43.07.16.1.38.45,1.18.2.29.58.6,0,.08,0,.11,0,.1.09.07.13,0L128,170l0-.15h.36l.43.11h1l.29-.08.11-.2.16-.6-.07-.36-.37-.16-.13-.19-.41-.88-.2-.61-.24-.25-.32-.19-.3-.12-.16,0-.46,0-.64,0-.22,0-.84.25Zm24.41,80.79-.05-.37.11-2.19-.1-.37-.24-.25-.31-.21-.28-.26-.06-.15-.1-.12-.13,0-.16.08-.08.24-.09.86-.13.18-.1.06-.1.15-.07.19,0,.18,0,.21.06.06.1,0,.34.15h.14l.1.07.07.63.06.18.22.43.12.72.14.33.24.32.16.08.11-.4.1-.19.07-.18,0-.15Zm-47.83-7.16-.17-.27-.3-.29-.35-.24-.32-.12-.18.1,0,.19,0,.23-.12.17-.27,0-.2-.2-.21-.26-.25-.13-.42.22-.16.57v.64l.1.43.14.27.14.18.17.06.25-.05.07-.06.08-.22.08-.07.11,0,.22,0,.14,0,.2-.09.51-.38.1,0,.1,0h.12l.12-.11,0-.13,0-.17-.1-.28.12.06ZM139.15,194l.14.27.33.25.58.35.63,1.06.41.47.06.15,0,.12,0,.11.11.09.19,0,.1-.09.09-.12.15-.06,0-.08-.19-.57-.09-.36-.22-.3-.23-.24-.17-.22-.24-1.17-.17-.29-.22-.15-.7-.27-.28-.26-.16-.09h-.2l-.22.24,0,.38Zm-11.93-10.77-.47.51v.61l.91.3.79-.18.2-.42-.29-.47-.64-.35Zm-2.58,1.89.28.23,1.32-.65.2-.23,0-.44,0-.22-.1-.2-.18-.2-.23-.13-.25,0-.22.13-.13.2-.11.25-.07.27,0,.24-.12.3-.21.24ZM82.9,7.67l.37-.36.27-.46.17-.47,0-.26,0-.27,0-.26-.07-.25-.15-.19h-.18l-.16.12-.15.2-.23.61-.31.5-.25.52-.08.49.29.22ZM84.76,14l.32-.12.23-.24,0-.19,0-.12-.08-.14,0-.24.08-.12.39-.34.59-.42.11-.15v-.17l-.09-.14-.14-.1-.15,0-.21.08-.3.2-.24.22,0,.16-.71,1-.1.32.1.39Zm-.57,14.72.3.19.4.41.24.09.29-.13.16-.26.08-.62.1-.22v-.08L85.65,28l-.14-.08-.1,0-.13,0-.21.2-.12.07H84.8l-.26-.05-.34.07h-.1l-.06,0,0,.18,0,.18Zm-8.71,3.92.09.14.12.09.14,0H76l.09,0,.65.38.11.11.46.17.15-.05,0-.1.05-.11.1-.09h.12l.16,0H78l.06-.07,0-.13,0-.1,0-.08,0-.06,0-.06-.2-.25,0-.12v-.07l0-.06v-.85l-.17-.2-.21,0-.26.11-.3.07-.32,0-1-.34-.29.36-.19.1-.28,0,0,.11.54.64ZM73.8,40.94l.41.06,1.49-.13.43-.1.38-.17.4-.29h-.18l-.15,0-.13-.08-.12-.13-.23-.18-.22,0-.49.09L74.8,40l-.91.3-.34,0-.08.08.07.25Zm9.29-.38v.35l-.12.25.23.18.31,0,.16-.16.1-.35.25-.31.58-.5.21-.26.35-.51.45-.19,0-.21-.12-.25-.21-.18-.12-.12-.06-.17L85,38,84.89,38l-.09,0-.26.12-.05,0,0,.07-.1-.05-.12-.07h-.1l-.16.16-.23.37-.13.08,0,.11,0,.26-.13.28-.17.2.36.41-.23.3Zm1.18,73.64,0,.47.14.38.4.16.36-.08.4-.22.33-.29.33-.85,0-.24-.17-1.11L86,112l-.22-.29-.31,0-.07-.24,0-.17,0-.63,0-.08,0-.05.55-.35.15-.13v-.21l-.14-.42-.15.09-.06-.09,0-.2.17-.17.26-.06.19.1.37.45.08-.37-.17-.28-.32-.17-.41,0,.11-.29-.11-.2-.19-.07-.15.08-.27-.16-.7-.09-.31,0-.13.15-.15.3-.32-.06-.51-.31-.19.18-.12.4-.13,1.16.05.1h.17l.28.08.13.15.37.57.07.19,0,.62.07.21.27.08.35.37.24.8,0,.68-.32.07Zm5.63-.76v.09l.25-.17V113l-.16-.37-.21-.17-.32,0-.18,0-.15-.13-.09-.19V112l.07-.14.13-.1h-.59l-.21.07-.19,0-.13-.1,0-.23-.19.17,0,.07-.27-.09,0,.1.11.21.07.2.1.13.24.08.47.08Zm-5,10,.33.4.28.18.2.09.68.62,1.12.73.63.54.38.21h.31l.11-.41-.18-.4-.39-.33-.76-.53-2.2-1.88-.12-.18-.08-.09-.1-.07-.22,0-.18.05-.13.15-.06.22.11.3Zm35.62,9,.14.22.05.24-.07.24H121l.29.1.52.38.91.84.3.12.2-.13.14-.3.13-.34.13-.25.21-.17.28-.13.28-.06.22.07.21-.1.22.27.23.36.25.18,0-.26.26-1.05,0-.33.07-.13.18,0h.35l.38-.13,0-.28-.3-.49,0-.18.08-.35,0-.5,0-.15-.12-.19h.15l.33-.13-.09-.24-.06-.26-.1-.21-.23-.12.23-.19.25-.16v-.12l-1-.84-.48-.21-.25.46h-.11l0-.08,0,0-.08-.12.13-.13-.22-.3-.15-.12-.16,0,0-.72-.14-.45-.23-.42-.28-.37-.35-.32-.13-.09h-.12l-.12,0-.16.09-.35.34-.24.06-.22-.28-.12.23-.08.27v.27l.14.25.05.16-.11.15-.14.13-.08.09v.15l.06.3.24.67,0,.31-.17.29-.08.25.14,1-.13.67-.24.6-.35.5-.43.37-.44.25-.17.19.07.22Zm-8.09,20.91-.2-.28-.09-.07h-.58l-.3-.13-.27-.22-.54-.54-.24-.11-.33,0-.29,0-.13.12h-.06l-.12.19-.09.2,0,0,0,.06v.16l0,.08-.07,0h-.22l-.3.4-.2.13-.08-.23.09-.29.2-.2.2-.15.09-.13-.26-.63,0-.26.3.06v-.07l0,0-.15,0-.16-.1-.12-.13-.16-.11-.27-.07-.49-.08-.25-.12-.17-.1-.17-.06-.13.05-.05.21.18,2,.23.19.17.1.1.14,0,.27,0,.4-.25.87-.06.52-.06.23-.47.65,0,0v.69l.32-.13.38,0,.59,0v.32l-.14.15-.21.09-.24.16.23.31.07.2-.13.09-.26,0-.17.12-.13.18-.09.24-.27-.14-.09.32,0,.66-.1.19-.12.16-.09.18,0,.23v.2l0,.17L106,161l-.19,0-.16.14-.13.35-.09.42,0,.34.17.22.37-.23,1.43-1.32,1-1.1.11-.24.1-.08.19,0,.16-.08.18-.18.13-.22.15-.46.52-.74.21-.22.24-.13.39-.13.41,0,.29.12.14.09.49.21.12.1.24.37.51.54.22.29.18.68.25.06.34,0,.37.11-.31,0,0,.21.14.25.45.19.22.19.2.23.15.21h.11l0-.07.1-.16.23.48h-.24l-.16.09-.11.15-.08.22.23.16.31.31.35.2.4-.19.63.28.31.07.22-.12.33.49.26.24.58.19.36.42.49.18.57.49.22.24.35.69.23.3.23,0,.07-.28-.09-.35-.14-.34-.07-.28v-.18l.11-.47v-.41l-.06-.23-.42-.89-.35-.48-.06-.2.19-.16-.23-.27-.07-.12-.06-.19.31.23.35.53.28.18-.07-.29-.18-.3-.71-.89-.09-.16-.17-.57-.06-.15-.11-.08-.25-.09-.11-.07-.89-1.44-.17-.34v.12l-.12-.21-.16.05-.18.12-.23,0-.52-.54-.4-.26-.11.27.08.76-.44-.46-1.07-1.85-.13-.15-.15-.14-.18-.12-.14,0H114l-.17,0-.07-.11-.11-.27-.26,0-.57.3v-.21l0-.16.12-.09.2,0v-.12l-.27-.15-.2-.32-.16-.33Zm2.37-3.08,0-.12-.15-.05-.84-.5-.29-.35-.2-.17h-.15l-.08.23,0,.34L113,150l-.16-.09h-.11l0,.22,0,.17,2.54,3.77.51.48.07.16,0,.17.1.18.13.13.13.06.07-.1,0-.21-.1-.34,0-.4V154l-.1-.08,0-.09-.19-.91-.23-.56-.06-.27-.1-.26-.2-.34-.13-.34.08-.31-.11-.17-.16-.12-.2-.06h-.24l.17-.06Zm-7.09-3.4-.11-.87-.13-.21-.07-.19-.11-.17-.28-.15-.33.14-.43-.14-.41-.27-.28-.27-.26-.54,0,0,0-.21-.24-.43-.05-.2-.07-.09-.4-.33-.35-.71-.26-.4-.15-.18-.17-.17-.39-.27-.22-.12-.2,0-.06.42-.23.13-.29,0-.23.15v.2l.11,1,.4.44,1,.24.42.28.06.13,0,.16.07.12.14,0,0,.08.3.32.07,0,.13.24L106,146.2l.26.17.64.13.23.15.36.38,1.16,1.61.58.42-.25-.74Zm-14.3,7.24.33.14.39,0,.4.14.29.33.42.71.16.11.34.1.15.09.26.36.08.05.23-.08.3-.19.28-.23.18-.21.28-1.24,0-.24-.32-.4-.13-.23-.1-.22-.11-.36-.09-.11-.2-.09-.64-.14H94l-.62.17-.37.36v.61l.15.31Zm-5.27-4,.26,0,.08-.07v-.29l-.18-.15-.51-.16-.18.43-.49.25-1,.27-.4.33-.08.37.12,1v.58l-.08.64-.25.52-.54.21-.21.34-.18.7,0,.63.15.12.71.69.19.08.19,0,.14.09,0,.21-.09.37-.21.18-.24-.07-.16-.41-.08.87.1.28.46,0-.1.29.08.24.36.41h.12v-.89l.07-.11.3-.29.1-.14.22.25,0-.26-.23-.22-.19-.23.11-.31.13-.19.51-1.25.31-1.23.13-1.27.4-1.19.1-.56-.13-1v-.16Zm-5.42-12.34.52.54.29.46.17.13.14.06.3,0,.14,0,.57.51.19.08.15.13.24.26.28.2.27-.05.53-.45.15-.31-.17-.37.39-.5,1-1,.15-.51-.09-.16-.31-.23-.06-.14,0-.3,0-.12h.16l.12,0,.06-.08-.11-.3-.32-.26-.37-.1-.26.17-.08,0-.19-.13-.08-.06.16-.17-.06-.18-.19-.09-.25.09.08-.24-.07-.18-.15-.15-.22-.15-.15.35-.35.12-.4-.09-.26-.27-.08.1-.19.17-.08.1-.37-.55-.24-.24-.25.05,0,.13,0,.48-.06.17-.44.81-.12.16,0,.25v.92l.06.26v.12l-.08.41Zm-27.13-8.23-.33-.16-.33-.08-.25.08-.07-.18-.37-.24-.41-.22-.25-.09-.18,0-.13.08-.08.13v.19l.05.42.15.41.27.31.56.17.19.25.11,0h.22l.19,0,.17.07.19.12.11.15.06.16.1.12.24,0,.15.07.14.18.11.2.12.15.07-.09.28-.22,0-.19-.1-.06-.14,0-.14-.07-.14-.22.08-.15.15-.14.1-.2-.58-.91Zm92.54,67.8.25.2.36,0,.25-.11.13-.23,0-.3-.21-.25-.28-.27-.16-.28.2-.27-.14-.7-.05-.11.11-.1.14-.24.11-.27.06-.21,0-.22-.11-.21-.28-.34-.09-.24,0-.29.13-.47-.29.05-.2-.12,0-.18.19-.1-.12-.12.17-.26-.13-.23-.24-.2-.14-.14,0-.23.12-.07.15,0,.05,0,.06-.15.06-.43.32-1.18,0-.61-.22-.57-.25-.4-.13-.09-.2,0-.14.11-.09.18-.12.42,0,.65-.08.18-.11.07-.16,0-.13,0-.1-.2-.11,0h-.11l-.09,0-.11.13v.08l.06.08,0,.13v.4l-.08.1-.21,0-.4.11,0,.25.14.31-.07.27.08.08,0,.06,0,0,.08.05-.2.21,0,.23.11.23.06.27-.11-.11-.11-.06-.12,0-.13.06.09.28,0,.37-.16.31-.25.12,0,.17,0,.44,0,.09.23.09,0,.2v.23l.13.18.25,0,.16-.13.13-.17.1-.09.18,0,.15.07h.11l.09-.22H147l.08.17.22.28.05.08-.05.21-.1.06-.12-.07-.08-.14-.19.37,0,.42.17.29h.41v.1l-.08.09,0,.09.06.08.15.09h-.23l.18.2.47.15.16.13.07.31,0,.29Zm5.38.84h.13l.11.06,0,.12,0,.08,0,.08v.07l.42.59.26.26.25.2-.12-.35h.22l.65.25.46,0,.18,0,.14-.08.28-.24.39-.14,0-.24-.1-.27-.14-.2-.21-.22-.18-.14L156,198l-.33,0,.12-.17.26-.24.09-.18v-.18l-.19-.93-.79-1.71-.16-.06-.32.24-.12.17V195l0,.15v.16l-.07.16-1,1.66-.07.24.16.18.24.14.2.08-.17.17-.2.07-.23,0-.23,0,.12.16ZM90.85,253l-.16-.08-.43-.13-.18-.08-.1-.08-.08-.09-.1-.1-.18-.09-.76-.1-.2-.07-.12-.16-.09-.16-.06-.07-.2,0-.41-.1-.18-.07-.14-.11-.24-.23-.15-.08h-.14l-.46,0-.28.05-.17.11-.26.31-.68.29-.16.24-.14.06-1.72.14-.29.14-.19.26-.07.45.13.45.32.13.38,0,.33.15.08.32v.9l1.19,1,.06.13,0,.15,0,.35.07,0,.56-.09h.74l.32-.06,1.09-.42.38-.08.39,0,.38-.12.16-.27.1-.77.07-.27.12-.27.16-.24.18-.21.31-.18h.8l.35-.11.23-.25-.1-.18ZM56.07,276.19l-.13-.12-.15,0-.14.06-.12,0-.07-.12v-.89l0-.19-.09-.13-.17,0-.18.08-.33.22-.38.14-.21.11-.16.2-.46.26-.07.13-.08.32,0,.08-.17.07-.12,0-.12-.05h-.17l-.28.29-.13.06-.15,0-.4.16-.54.08-.13.13-.24.42-.59.35-.11,0-.1.1-.53.25-.6.2-.13.07-.16.14.11.27,0,.58,0,.21.18.18H49l.15-.09.23-.09h.53l.14-.07.25-.31.13-.1.2,0,.16.12.18.05.28-.22.11-.52.06-.13.13,0h.16l.12,0,.15-.21.07-.19.13-.14.35-.05.19.06.24.1.25.06.25-.1.13-.25,0-.55.18-.24.06.16.1.2.13.16.13.06.31,0,.08,0,.05-.07,0-.13.05-.12.11,0,.12.13,0,.25-.1.49,0,.28.11.17.19.11.25.08.17-.24.09-.36.1-.67.25-1Zm58.47-67.1.17-.23.06-.24-.28-.1-.13-.1-.25-.52-.16-.23-.23-.08h-.26l-.21.08-.09.18,0,.28-.08.12-.13.07-.51.43L112,209l-.39.06-.31-.17-.43.4-.06.2.15.23,1.38,1,.3.12.3.05.33,0,.28.08h.14l0-.15,0-.12,0-.09.09-.06H114l.49,0,.14,0,.09-.08.21-.29.12-.07-.14-.14-.2-.12h-.08l-.19-.26-.06-.14v-.19Zm18.93.52-.17-.29-.16-.12-.19-.07-.16-.18-.29-.43-.65-.19-.6.14-.45.4-.17.63.17.57.43.4,1,.5.14,0h.15l.12,0,.1.23.12,0,.16,0,.15-.06.23-.23,0-.28,0-.28.13-.48Zm-4.81-9.67.24.07.44.06h.42L130,200l.05-.21.42-.9-.91-.66-.35-.36.26-.16.33-.12v-.27l-.21-.32-.27-.23.15-.31,0-.15V196l0-.33.21.26.05-.15v-.31l.07-.42-.18-.18-.5-.25-.3-.2-.18-.06-.51,0-.23-.12-.78-.69-.2.05-.18-.22-.14-.32,0-.23-.25.14-.26.42-.19.15-.11-.7-.31-.17-1.15.16h-.69l-.66.13-.29.12-.14.1-.27.36-.11.1-.21.14-.13.11-.05.16,0,.15v.12l-.5.11-.19.18-.09.27,0,.36-.3.55-.7.3-.77.19-.56.2-.09.12-.07.16-.09.13-.16.06-.24-.09-.12,0-.05.22-.12.25-.59.51-.23.25-.32.69-.1.37,0,.4.12.3.29.07.34,0,.31,0,.18.23,0,.3-.1.34-.06.37.15.29.35.22.76.26,2.18.37,2.65-.17.66,0,.58-.05.76-.2.73-.32.49-.37.12-.18L127,201l0-.18v-.23l.08-.21.19-.11.2-.07.17-.09.52-.54.12-.1.24,0,.06.14,0,.17ZM98.33,184.49v-.93l-.45-.69-.19-.1-.51-.37-.2.24-.23.2-.19.23-.18.66-.24.12-.31.06-.28.14-.17.23-.28.52-.19.25-.14.28,0,.36.13.3.32.07-.13.14-.28.13-.06.13,0,.2-.11.08-.17,0h-.21l-.21.08,0,.18.16.16.07,0,0,0,.21.05.09,0v.07l0,.2v.08l.11.36.08.16.1.07.19-.06.29-.23.1-.06.12-.13.28-.22h.19l-.18.47.67-.19.51-.46.39-.6.58-1.36ZM53.15,164.7l-.08-.11-.1-.1-.13-.09-.16-.07v.12l-.16-.09-.07,0v-.1l.21-.25,0-.23,0-.17.45-.07.12,0-.17-.08-.35-.11-.48-.37-.09,0-.19-.12-.09-.13.39-.09.11-.08v-.08l-.17,0h-.76l-.3-.06.08-.18-.59-.36-.16-.35-.25.08-.21.25,0,.14.05,0,0,.08,0,.09-.05,0h-.07l-.09,0-.05,0,0,0h-.15l-.08,0-.09-.05-.14,0,.24.82.11.24.2.24.43.43.18.28-.1,0-.15.13-.1.07.17.13.16.48.14.22.24.15.27,0,.21-.15.09-.37.14.11h.09l.13-.1.11.23-.06.24-.18.24-.23.23.07.13,0,.09,0,.25h-.13l0-.11-.07-.08-.23-.16-.11.44.08.5.21.27.3-.27.5,0,.56-.47.34-.56-.24-.35.12-.1Zm-3.76-6.81-.16.16,0,.13.22.13.07-.25.15-.24.17-.2.2-.15.19.22.07.25,0,.23.11.19.18.19.08.18,0,.2v.26l.11.36.49.56.22.5.29.26.35.19.3.08.74-.11.18.12.25.47h.1l.07-.13.06-.08h.08l.14.08,0-.23.06-.19v-.18l-.11-.21.13-.13.26.1.29,0,.21.07,0,.27.22-.09.19.1.19.16.23.09.24-.05.18-.12.21-.1h.29l.16.07.08.08.11,0,.23-.06.23-.09.16-.11.07-.16-.1-.23-.12.13,0-.07v-.06h-.08l-.11.16-.13,0-.08-.09.08-.23.15-.15.16-.06.12-.08,0-.25-.09-.23-.22-.28-.51-.49,0,.08h0l-.06,0-.1-.3h-.23l-.24.05-.11-.18v-.47l0-.28-.12-.26-.24-.31H55.6v1.62l-.18-.06h-.15l-.1.1,0,.18-.45-.23-.9-.71h-.38l0-.19.06-.15.12-.09.17,0-.15-.07h-.29l-.13,0L53,157.5l-.41-.44-.46-.38-.29-.16-.26-.08-.66-.07-.25-.09,0-.15,0-.28-.11-.26-.31-.13-.4,0-.12.25,0,.68.11-.1.17,0h.42l-.32.2-.3.09-.23.14-.09.34,0,.26v.18l0,.22Zm2.12,28.47.15-.15,0-.15v-.12l.34-.16-.18-.26-.45-.26-.4-.14-.52-.16-.5-.21-.53-.31-.16,0-.11.05-.1.08-.15.19-.4.71-.17.2-.7.52,0,.06.07.1.15.05.21-.08V187l.05.37.13.26.3.19.26,0,.24-.13.25-.08.3,0,.15-.05.07-.1.07-.17H50l.2,0,.13,0,.1-.28,0-.33-.1-.34-.05-.34.17.13.41.57,0-.08,0-.07,0-.08,0-.12.31.13ZM2.13,229.19V229l.07-.33-.16-.2H1.76l-.77.13-.14.12,0,.26-.09.21H.46l-.11-.12v-.17l0-.18-.19-.12L0,231l0,.09.33.86.36.53.08.26L.7,233l.24.13.27,0,.14-.11-.18-.3.28,0,.26-.18.2-.22L2,232.1l0,0,.13-.12,0,0,.08,0,0-.07-.12-.12v-.35l0-.06.08-.15,0-.08,0-.35L2,230.08l0-.26.1-.11.16-.08.08-.13-.16-.21Zm73.52,34.56-.37-.1-.72,0-.39,0-.77-.34-.32.15-.28.23-.31.08-.26-.24-.39-.86-.34-.19-.19,0-.38-.23-.19-.07-.32,0h-.31l-.6,0-.16,0-.15.1-.38.54-.15.08-.38,0-.47.32-.64.28-.28.27-.21.34-.08.3.08.32.26.38.08.06.22,0,.1.06,0,.07v.2l.09.09.19.05.16,0,.34-.16.61-.4.15-.06.71.12.08.07.21.31.1.09h.14l.12-.05.33-.2,1.39-.63.65,0,.42.43v.16l0,.17,0,.2.14.23.16.13.17.09h.19l.18-.11.48-.51.16-.13.12-.06.65-.08.07,0,0-.29.06-.22.14,0h.17l.16-.09.16-.36L76,264ZM50.81,85.58l-.27.28-.08.17,0,.15.19.13.34.45.34.27.07.13.21.16.21,0,.12-.16,0-.24-.1-.24v-.76l-.14-.34,0-.11-.06-.11-.12-.09-.19,0-.14.1,0,.1,0,.07-.13,0Zm29.84,42,.06-.24.29-.18.11-.24.27.13.64.22h.14l.26.27.19.31.25.27.55.15.19.09.19.14.35.3.19.06.18,0,.21.06.22.13.61.56.07,0H86l.22.13.29.24.25.07.1-.34.57.42.43.5.91,1.48.14.17.1.16.07.29.06.15.24.14.57,0,.31.1,0,.24h1l.27.3.11.24.48.2.11.15.33.31,0,.13,0,.22,0,.12,1.67,2.22.32,1,0,.28-.18.61-.05.35,1.13,1,.29.18.28-.06.43-.18.4-.23.16-.18.07-.11.15-.07.16-.06.09-.06,0-.14v-.21l0-.36-.05-.11-.08-.11-.07-.13,0-.19v-.71l-.07-.65-.17-.72-.15-.34-.19-.3-.75-.88-.44-.69-.1-.28.72.55.39.2.06-.28-.24-.28-1.22-.73-.63-.62-.26-.37-.11-.44-.1-.77.09-.33.37.08-.14-.63,0-.37.11-.25v-.21l-.17-.31-.83-1.2-.06-.13-.22-.09-.23-.23-.13-.27.05-.24.32.27.42.14,1,.07.36-.47.06,0,0,.11.22.25.07.17.21-.12.09.15,0,.23.07.12.22,0,.22.09.21.12.52.52.06.14-.08.11-.12.09,0,.07.18.22.2.12.23,0,.2-.19.16.11.66.13.24.13.24.19.07.15H98.7l-.1.12.1.11v-.11l.52.26.41.35.83.93-.81.72.24.21.52.62.23.13.22.09,1,.75.42.39.16.08.26,0,.39.16.28,0,.49.13.9.57.48.13.38.21.32.5.16.59-.1.48.46.49.08.15.08.28.07.15.27.32.63.44.27.31.08.65-.45,1.36.26.61-.16.23.06.3.13.31.08.29.16.13.35-.12.54-.31.39-.12h.29l.28.07.39,0,.15.13.3.58.34.18.25.36.18.14.13.06.14,0,.18.06.33.18.21.17.46.54.11.07.18.06.29.06h.28v-.07l.12-.17.08-.14,0-.15.07-.12.21,0,.18,0,.12-.05.09.06-.28.38-.16.37.35.33v-.17l0-.14-.08-.1.1-.05.44,0,.18,0,0,.11-.14.12-.19.07.15.23.09.25.07,0,.1-.07.06,0,.14-.1.19-.3.08-.06.1,0,.16.17.09,0,.11,0,.16-.09.39-.1.29-.19.4-.44.09-.23.09-.36.13-.33.21-.14.28.05.52.25.3,0,.79-.12.35.11.14.43-.08.32-.19.31-.26.25-.28.12-.12,0-.16-.07-.18,0-.18.08-.08.16v.17l0,.14-.22.06-.17,0-.09,0h-.1l-.16-.06-.12-.1-.28-.28-.18-.1-.17.34-.24.24-.34.13h-.44l.34.22.28.12.21.19.12.43,0,.35-.07.35v.34l.35.64.12.33.14.26.36.16.26.29.14,0,.12,0,0,0,0,.18.48.74.4.38.46.17.55,0,.21,0,.2-.07.29-.21.2-.06-.15-.36-.09-.11.24-.17v-.14l-.08-.17,0-.3.11-.25.48-.33.11-.25.23-2.08V147l-.17-1.11-.23-.39,0-.27,0-.16.3-.63.16-.49.12-.19.2-.26.21.11.14-.19.05-.33-.07-.3-.19-.11-.39-.16-.39-.1-.18.07-.08.24-.35.73-.17.16-.17-.12-.75-.66-.1-.21-.22-.24-.27-.2-.22-.11-.61-.17h-.11l0-.16-.07-.09-.13,0h-.16l-.16-.06-.19-.25-.19,0-.21.05-.1.12-.06.14-.1.16-.63.83-.1,0-.25.22-.18.07H116l-.14,0-.36-.19.06-.15v-.09l-.07-.12v-.13l.37-.11,0-.21-.29-.5-.06-.26,0-.23.08-.23,0-.29.13-.46.37-.14,1.13.06-.13-.23-.2-.24-.18-.07-.07.3-.26-.77-.2-.37-.29-.16-.31-.11-.26-.29-.21-.38-.09-.49,0-.15v-.18l0-.09-.23-.15-.07-.07-.42-.74-.22-.27-1.05-.54-.13-.12-.63-.83-.15.14L112,134l-.12-.05,0-.2v-.27l.05-.08,0-.1-.07-.06-.14,0,0-.36.54-1.44.17-.24.3-.1.27.1.39.22.36.12.15-.14.17-.12h.36l.94.14.61.32.31.07.36-.15.3-.32.24-.33.16-.15.56.05.3.07.24.12.1-.16,0-.08h.1l.09.14.11.11.28.24.12-.26-.06-.18-.29-.27-.24-.5-.11-.11-.2-.06H118l-.21-.07,0,0,0-.05,0-.06-1.24-.53-.65-.47-.53-.57-.39-.64-.51.86-1.17-.22-1.25-.48-.79.07-.11-.33-.14-.19-.22-.1-.34-.09,0,.35-.11.22-.14.17L110,128h-.12v-.21l0-.19-.07-.17-.12-.16.13-.28-.32-.48.06-.31-.11-.11-.06,0-.18.07.16-.37.08-.11-.19,0-.14.09-.31.29-.1,0-.07-.2,0-.21.29-.07-.16-.62-.13-.25-.23-.1-.08.06.14.3v.13l-.11,0-.49,0,.16.19.08.05v.11l-.55-.27-.35-.11-.16.08.16.46,0,.19-.35.14.27.16-.16.12-.3.11-.16.14.08.29.2.21.79.48.15,0H108l.15-.12.21-.53.18-.19v.23l-.06.27-.1.24-.13.1-.08.07-.56.41v.25l.26.39.2.63.11.23,0,.11-.06.11,0,.11-.1.21-.6.69-.19.11-.51.21-.18,0-.91-.09-.41,0-.36.19h-.13l-.33-.34-.37-.25-.29-.35-.05-.6.15-.88.08-.2.12-.12.13,0,.12-.05.1-.15v-.14l-.12-.47,0-.8,0-.26-.06,0-.42-.25-.34-.36-.05-.36.1-.24.13-.21,0-.27-.08-.23-.16-.17-.19-.06-.16.1-.16-.23-.64-.7-.18-.15-.41-.6-.09-.07-.09,0h-.22l-.07,0v-.1l0-.12,0-.09-.52-.63-.34-.23-.48-.09-.25,0-.12,0-.27-.31,0-.09v-.12l-.27,0-.1,0-.09-.08-.08-.11-.3.33-.24,0-.16-.24-.13-.29-.11.13-.3-.21-.15.2.05.4.28.44-.22-.06-.47,0-.1.22-.16,0-.16-.19-.05-.25-.15.2-.15,0L96,121l0-.24-.44-.08-.81-.34-.39,0,.17.28.08.09-.42-.29-.2-.09H93.8l-.23.16-.21.21-.23.12-.26-.12-.07.28-.14.23-.15.07-.1-.23-.13.2-.26.56V122l.19.24v.19l-.17.11h-.32l.08.07,0,.1,0,.14,0,.16h-.13l-.06-.2-.11,0-.11.13-.06.21,0,.14.24.35.06.11,0,.39-.18.32-.28.23-.31.14v-.45l0-.2-.09-.19,0,.07-.05.1-.08.08h-.08l-.11-.11,0-.07,0-.06-.06-.25v-.22l0-.2-.12-.17.07-.27,0-.41,0-.35-.2,0-.07.25v.4L90,123l-.21-.11-.62.32-.2.24v.41h-.1l0-.16,0-.08-.18-.13.12.49.27.51.38.4.46.16.28.18.66.78.39.12v.11l-.24,0-.06.08.07.3,0,.23-.09,0-1.55-.42-.32.09.66.65.19.33,0,.46-2.45-.55-2.58-1-.32-.25L83.21,125l-1.16-.84-.59-.88-.23-.2V123l.21-.14.14-.22.09-.26,0-.27-.07-.16-.32-.31-.07-.12.08-.61,0-.24-.18-.3-.71-.69-.21-.27-.13-.28-.19-.68-.08-.63-.62-2.1,0-.31v-.77l.1-.27.26-.23.34-.13.36-.07.63,0,.32-.08,0-.19-.21-.23-1.07-.84-.13-.15-.11-.19-.7-.83.09,0,.17-.14.09,0-.31-.39-.26-.43-.18-.46-.07-.47-.12-.29-.54-.9-.22-.19-.12-.19-.35-1.76-.1-.34-.23-.24-.42-.23-.51-.39-.38-.61-.21-.73,0-.78.14-.44.13-.08.19.08.3.07.64-.84.15-.28.11-.32.14-1.13.14-.21.91-.77.21-.27.09-.32.11-.3.3-.24.65-.36-.16-.11-.15-.06-.28-.07.71-.84.1-.25-.18-.35-.39-.11-.4,0-.18-.16L78.5,95l-.28-.62,0-.42.12-.74.13-.36.17-.29.27-.22.83-.44.62-.72.1-.18,1.16-1,.14,0,.15.08.13,0L82.2,90l.19-.11.51-.12.24-.17.21-.2.2-.16.61-.17.62-.08.25-.08,1-.52.65-.21.28-.17.12-.27v-.32l0-.31.17-.24.35-.15.47.05.09.29-.14.33-.52.31-.16.36-.09.41-.1.28-.81.55-.13.23-.08.35-.17.32-.33.48.1.13.31-.36L86.8,90l.25-.39v-.09l0-.11v-.14l0-.14,0-.1.06,0,.06,0,.54-.55.57-.47.48-.61.09,0,.28,0,.09,0,0-.11,0-.26,0-.11.42-.72,0-.26-.3.22-.29.27-.09-.46.56-1.11.12-.61h-.12l0,.12-.11.24-.2-.51,0-.19.12-.26.3-.22,0-.08v-.36l0-.15.08-.15.24-.29.56-.47.24-.33.43-.89.22-.27.12-.2.33-.75.15-.5L93,77.38l.45-1.24.27-.53-.09-.3.23-1.38.17-.42.09-.09.13-.08.08-.19.06-.22.08-.17.21-.28.13-.33v-.34l-.16-.32-.32-.21-.18.12-.16.17-.27-.08-.07.08-.11.08,0,.08-.17-.24-.42-.32-.12-.28,0-.24.17-.54,0-.26,0-.21-.16-.49,0-.27.08-.15.19.08.31.24-.14-.47-.36-.47-.28-.18.08.41-.21-.2-.14-.54L92,67.49l-.22.05-.45.18h-.21L91,67.66l-.31-.29h-.15l-.12,0-.08,0-.07,0-.2-.11L90,67.12l0-.29-.08-.19V66.2l-.25-.45-.33-.41L89.15,65l-.06-.44-.52-1.31-.11-.46V61.23l0-.15-.23-.26-.06-.13v-.12l.1-.23,0-.14-.06-.41v-.18l.73-3.3v-.22l-.1-.58V54.9l0-.15-.06-.13,0-.16v-.22l.08-.23.1-.13.57-.52L90,53l.27-.25.45-.57.3-.59.23-.74.08-.78-.13-.73-.34-.47-.16-.09-.47-.41-.14-.2L90,47.85l-.07-.72-.13-.28-.26-.12h-.36l-.79.07-.12.21-.4,1.25-.05.61L87.7,49l-.35.07-.22.17-.67,1-.89.53-.21.08-1,.13H84l-.73-.15-3.06-1.2L80,49.54l-.25-.09-.18.26v.37l.25.25v.11l-.33-.31-.28-.49-.36-.46-.77-.26L78,48.78l-.11-.15-.1-.12-.11,0-.23,0-.14,0L76,47.53l-.55-.16-.23-.15L75,47l-1.67-.86-.44-.41L72,45.32l-.14-.13L71.8,45l-.11-.14-.19-.06-.38,0-.19,0-.13-.09-.19-.07-.21.11-.19.16L70,45l-.16,0-.36,0h-.16L69.1,45l-.67.34-.14.13-.12.17-.28.16-.34.11-.3,0L67,45.7,66.51,45l-.26-.33L66,44.53l-.36,0-.34.15L65,45l0,.31v.41L64.9,46l-.29.16-.32.06-.76.26-.36,0-.72-.16-.27,0-.35.29-.35.37-.16.27v.3l.2.47.2.67,0,.73-.12.7-.22.59-.51.93-.07.22,0,.07-.07,0-.08,0,0,0v.1l0,.1,0,.07,0,0-.95,2-.06.25.11.23.06.36,0,.39v.3l-.08.24-.36.76-.4.57-.05.25.07.74,0,.4-.09.26-.4.49-.13.26.1.19.19.19.13.27v.25l-.07.32-.17.28-.3.12-.37,0-.17.16-.33,2.16.12.31.29.15.75.21V65l.56,1.32.15.61v.2l0,.16-.08.16-.14.2-.3.34-.05.1.06,1-.15.76,0,.27,0,.14.16.25,0,.09.34,3,0,.46-.11.35-1.3,2-.16.15-.14.09-.12.11-.11.2-.07.18,0,.17,0,.39.07.39.12.38,0,.38-.3.61-.09.4,0,.39.09.22v.12h-.2l-.11,0-.06,0v-.07l-.15.15.13.34.24.42.15.42-.13.91.22.66.41,2.89.1.11.11.11.09.14v-.35l.54.69.2.41.08.41v.71l-.07.2-.33.35-.07.18-.16.27-.6.51-.06.24h.14l.24-.09.21,0,.11.13L58,90.4l-.18,0-.2,0-.12-.07-.19.18-.19.38-.21.17.13-.48-.25-.19-.59.06-.16.07-.31.19-.36.08h-.4l-.79-.22-.33-.17-.23-.25-.09-.35-.16-1.12-.06-.07-.12,0-.32-.32-.2-.14-.21,0H52l-.17-.12-.49-.52-.1-.15-.17-.08-.78-.2L50.11,87l.41-1.66V85l-.16-.28-.42-.12-.37,0-.27.07-.07,0-.29.2-.08,0-.19,0h-.08l-.17.17-.19.28-.16.35-.1.73-.31,1.13,0,.23,0,.55.05.18.25.26L48,89,48,89.3l-.25.75,0,.29,0,2,.26.52.18-.17.06-.07.26,0,.2-.27.27-.24.44.11.22.25.2.36.28.71,0,.37,0,.27-.08.26-.06.3.1.74-.08.28-.38.08.25.45.35.23.3.25,0,.51-.08.24-.22.46,0,.2,0,.23.3.67.1-.18,0-.07.14.13.07.21,0,.19,0,.09.09,0,.1.11.07.14,0,.12-.11.4-.28.27-.35.08-.32-.2.09.25,0,.12V101l-.06.09-.25.16,0,.15.15.33,1,1,.17.27.29.58.35.53.07.14v.4l0,.3v.17l.11.08.16.16.59,2.51.07.71-.12,1.59.12.66.4,1.32.26-.1.08,0-.06.14-.06.1-.09.07-.13.06.17.17.43.16.09.2L54,113l.27.12.3.07.24,0,.2-.31.17-.58.07-.61-.09-.41.22-.23.19.11.17.24.18.13h.2l.12,0,.06.09,0,.2.06.1.13,0,.28,0-.06.19-.09.14-.09.07-.1,0-.13.16-.15.14-.14.16-.06.19.36.22.13.13-.2.06-.32.24.19.54.54.79h.12l.08.15.14.08h.17l.19-.11.7.47.18.32.06.6-.08,1,.09.49.34.43.14.06.78.23.08.13,0,.13.06,0,.25,0,.09-.12,0-.12,0-.08h.18l.13,0,.12.06.16,0,.66-.12.4-.45.16-.67-.07-.79-.32-1.24,0-.27.09-.19-.06-.2-.67-.76,0-.35.16-1.13,0-.86.14-.23.34.2.07-.79.14-.33.27,0,.07.28-.2,1.17L62,112h0l.07.12.18-.18.05-.06,0-.15,0-.57.1.25,0,.29v.6l.06.21.17.15.23.1.24.07,1.06.19,1.67,0,.18,0,0,.1v.11l.06.1.8.32.14.11.08.21.5.69.11.24.12.71.15.37.36.6.07.41-.06.32-.18.24-.46.33-.28.32-.12,0-.37,0h-.2l-.14.06-1.5,1.46-.36.58-.14.09-.42.17-.09.1-.08.21-.21.19-.26.16-.25.1-.68.11-.26.13-.11.29-.15.28-.29.33-.14.31.24.21v.12l-.2.1-.11,0h-.17l.27.15.14.16,0,.15-.26.14v.13l.47.14.2.36,0,.48-.07,1,0,.26.2.11,0,.09-.1.18-.21.16-.26,0,.29.65,0,1.48.14.63.36.46.24.15.1-.2-.08-.34-.15-.36-.06-.32.17-.24.69.13.34-.06-.15-.36-.23-.35-.06-.31.13-.23.32-.12h.38l.69.18,1.54.19.3.1.19.17.11.26,0,.29V129l0,.19-.09.37v.2l0,.08.28.29v.23l0,.15-.12.08-.22,0-.07.09-.06.2-.09.2-.13.09-.08.09,0,.2.09.21.12.09.14-.08,1.33-1.53.17-.05.21.05.21.09.34.22.06.07.24.64v.28l-.07.31,0,.42-.06.19-.1.1,0,.1.08.15.15.1.39.08.17.06.23-.14.27-.1.56-.13.26,0,.19.08.15.1.14,0,.31,0,.23,0,.45.19.08.06.24.15.26.09.33-.35,1-.73.33-.18h.24l.7.17.08-.11.5-.55-.2-.08-.11,0h-.16l.07-.44-.12-1.22.87-1,.17-.11h.08l.28,0,.13,0,.12-.06.32-.23.49-.17.22-.15h.09l.29.07h.14l.26-.28.09-.08.81-.21ZM164.2,242l-.56-.31-.14-.1.2-.32,0-.81.13-.38-.39-.29-.06-.06,0-.26.14-.13.19-.07.19-.13.2-.35,0-.33-.11-.37-.14-.8-.33-.85-.07-.39,0-.83.07-.37.13-.39-.36-.13-.87-.09-.4-.24-.41-.59-.07-.18-.07-.09-.51-.31-.33-.31-.25-.42-.13-.47v-.44l.2-.37.66-.49.32-.31-.32-.44-.05-.68.19-.61.4-.24-.19-.33,0-.25.06-.26.09-1.45-.06-.18-.61.5-.51.17-.27.16-.27.08-.26-.15-.13-.32.12-.29.54-.62.19-.43-.15-.16-.25,0-.14-.11-.23-.45-.07-.09-.12-.07.14-.13.2-.13.08,0,.39-.54.13-.34-.06-.29-.23.08-.06-.08.05-.4.08-.15.18-.05.45,0-.08-.07-.08-.1-.07,0,.12-.23-.07-.17-.35-.26-.13-.23,0-.13v-.05H160l-.09,0-.06,0,0,0-1.11-.17-.4-.19-.18.15-.22,0-.22-.09-.19,0-.11.13.11.13.34.22-.2.1h-.15l-.34-.1-.55,0-.15,0-.18-.22-.31-.78-.33-.36.14-.4.34-.4.59-.26.42-.32.2-.08h.37l.18,0,.21.08,0-.06v0h0l.07,0v-.11l-.34-.19-.13-.15v-.25l.11,0,.64-.43.38-.13.28-.34.2-.42.12-.4,0,0,.09-.13,0-.14-.22-.13v-.16l.07-.25-.21-.65,0-.22-.16-.35-1.23-1.24-.12-.19-.18-.42-.1-.14-.16-.07-.22,0-.19-.07-.08-.19.11-.78v-.57l.14-.76.12-.42.32-.54.09-.32-.08-.25-.34,0-.35.19-.61.61-.57.18-.36.17-.22,0-.18,0-.12-.07-.8-.82-.25-.53-.07-.57,0-.68-.47.23-.18,0-.29-.05-.21-.07-.17-.11-.09-.17v-.22l.15-.15.48-.13.18-.08.13-.14.07-.11,0-.17v-.29h-.12l0,.14-.19.33-.06-.17-.15-.2,0-.15-.08-.15-.19,0h-.21l-.16,0-.56-.51-.33-.18-1-.14-.17-.06-.14-.1-.32-.37-.17,0-.35,0-.18,0-.11-.15-.13-.08h-.22l.05-.06,0-.06v-.06l0-.06-.38.06-.46-.19-.4-.31-.17-.32-.1-.43-.2-.5-.13-.49.08-.41-.35,0-.49-.25-.56-.15-.32-.22-.29-.28-.2-.24-.07.18-.82,1.35-.12.28-.05.31,0,.31.63,2.32,0,.34,0,.17.37,1,.08.35v.53l0,.07.07.1.08.13.11.51.32.54.11.44.15.33,0,.16v.15l0,.31v.15l.09.21.12.16.11.19,0,.3,0,1.8-.11.6-.13.39-.17.17-.93.53-.35.08-.36,0-.74-.16-1.1-.06-.4-.1-.33-.26-.5-.67-.22-.41-.14-.16-.16,0-.16.14-.09.1-.05.12v.22l0,.22-.16.34,0,.21,0,.16.07.12.08.09.06.1.06.33-.13,1.45-.19.26-.29.16-.37.13-.37.22-.16,0-.23-.18-.34-.56-.26-.16-.39-.51-.14-.11-1.35-.75-.15-.13-.11-.22-.28-.2-.33-.14-.33-.08h-.21l-.17.05h-.18l-.19-.12-.19-.06-.2.09-.17.15-.14.16-.16.34,0,.38.13.76v1.47l-.13.75v.37l.14.33-.19.28-.23.19-.21.23-.08.37.09.35.34.59,0,.34-.06.17-.21.29-.07.13-.05.17-.07.53,0,.06.06.08,0,.1v.11l-.06,0-.23.07-.06,0-.28.23-.07.11-.5-.15-.33.11-.22.3-.12.44h-.12v-.38l.08-.37.12-.34.16-.32-1,0-.3-.08-.18-.13-.52-.57-.26-.16-.14-.06-.12,0,0,0-.4-.08H128l-.08-.27,0-.28-.11-.17-.43,0-.66.27-.59.46-.49.55-.35.58-.27.7-.07.36,0,.64-.06.18-.15.36,0,.08-.12.09,0,.07,0,.08,0,.18v.07l-.15.28-.06.16,0,.22.07.17.11.18.07.17-.08.18-.2.26-.27.51-.17.21-.57.29-.73.11h-2l-.61.14-.53.24-.41.3-.39.45-.24.18-.37.07-.21.07-2.26,1.78-.61.35-.07.06-.21.14-.21.09-.09-.11V230l.08-.33,0-.18.12-.45.3-.15.75,0,.37-.19,1.79-1.61.17-.19,0-.36-.26-1-.06-2.07-.15-.77-.22-.73-.28-.59-.71-.87-.09-.24-.07-.1-.21-.54h0l-.13-.31-.08-.05-.14.13h-.12l-.14-.28-.14-.15-.21-.09-1.38-.31.07-.3-.28,0-.23.13.21.2-.26.32-.09.15,0,.19v.17l0,.17-.16.17-.17-.38-.06-.09-.11-.06-.27-.11-.1-.06-.3,0-.14-.42v-.89l-.22.1-.2,0-.18,0-.28-.21-.42-.25h-.1l-.1-.08h-.24l-.24.06-.12.06,0,.17.14.2.54.63.08.2-.15.09-.2.18-.08.05-.13,0-.1,0-.08-.06-.1,0-.26.07-.13.16-.24.8-.06.12-.26.4-.22.22-.3.16-1,.09-.18,0-.11-.08-.17-.22-.06-.06h-.28l-.59.2-1.33.2-.25.07-.21.17-.22.25-.19.27-.08.2-.08.31-.38.51-.12.3v.2l.08.36,0,.19,0,.18-.07.12-.08.09,0,.08-.06,0-.31.18-.09.09v.11l.07.37,0,.11.63.41.22.3-.2.4-1,.8-.35.21-.18.06-.19,0h-.4l-.18,0-.23.16-1.64.28h-.4l-.42-.08-.31-.2-.14-.38-.08-.17-.2.24-.3.58-.19.13-.66.26-1.32.29-.3.13-.12-.1h-.14l-.12.07-.07.15-.27-.15-.42.08-1.33.44-.63.38-.51.14-.5.34-.19.17-.21.24-.43.77L88,232.85l-.41.76-.14.44.14.2.22.17.08.39v.73l-.17.63,0,.3.55.24-.15.27-.3.28-.2.15-.3.17-.22.17L87,238l0,.4,0,.16-.22.3-.09.18,0,.17,0,.55-.2.76,0,.44.18.2.15.06,0,.14,0,.15-.07.11-.13.09-.58.27L84.66,243l-.6,1.32,0,1.42.64,1.33.42.35,1.3.69.83.31.15,0,.39,0,.09-.05.17-.25.35-.24.22-.41.59-1.54.7-1,.11-.32,0-.79.24-1.44.24-.77.34-.46.2-.05.19,0h.18l.19-.14.32-.52.15-.18.11-.32-.18-.32-.24-.34-.11-.38.2-.34.79-.46.17-.18.06-.17.15-.22.19-.15.2,0v.11l-.13.59.18-.14.22-.26.2-.28.11-.24v-.42l-.23,0-.34.1-.31-.07v-.21l.17-.31.7-1,.44-.49,1.45-1.12.37-.22.21,0,.35-.17.15,0h.75l.18.12.27.35.14.11.71-.1.4,0,.18.26,0,.3-.08.36-.11.34-.14.23.11.29.13,1.05.08.26.18.21.13.26,0,.37-.33-.17-.2,0-.08.21,0,.4h0l-.06.05,0,.08,0,.1,0,0h.07l.08,0,0-.05h0l.11.07.06.14-.1.21.25.11H100l.24,0,.19-.08.24-.18,0-.13,0-.15,0-.25.09-.17.18-.24.22-.21.21-.07.16.16.26.66.14.23.39.1,0,0,.17,0,.09.1.1.05.18-.09.1-.17,0-.52,0-.25.11-.24.27-.37.09-.31v-.14l0-.08,0-.07,0-.12,0-.06.23-.15.07-.07,0-.21,0-.18,0-.17.11-.2.47-.48.39-.63.18-.16.19.14.07.32,0,.48.09.42.22.19.37.12.19.3,0,.34-.17.29-.3.12-.31,0L105,237l-.09.37.09.33.22.31.51.46.22.09.27,0,.23-.12.09-.25.13-.2.31-.15.35,0,.27.11.07.12,0,.15v.37l.06.09.25.17.14.27.5.53.23.17.55.26.53.39.2.06.18-.07.17-.25.11-.36v-.39l-.12-.36-.27-.26-.31-.18-.26-.23-.1-.42-.17-.27-.33-.33-.23-.34.15-.29h.16l.36.21.06,0,0-.38,0-.19.06-.13.16-.07.61-.11.17-.1.2-.14.18-.16.14-.17.21-.78-.38-.51-.47-.47,0-.59.2-.17.39-.2.43-.15.3-.07,1.1-.06.37.06.83.32.38,0,.4.1.34.24.92,1.22.28.22.41.1.76,0,.39.06.29.14.13-.13.83.43.92.68h.12l.76.52.51.71.8,1.71.19.27.16.09.22.41.2.09.53-.09.23,0,.24.18-.35.65-.08.33,0,.43,0,.54,0,.16-.11.16-.31.29-.19.46-.28.31-.64.53-.65.42-.39.19-.29.08-.37.37-.7,1.69-.23.86,0,1.81,0,.14-.09.31v.19l.06.14.1.15.13.13.12,0,.05,0,0,.07,0,0,.11-.07.18-.27,0,0,.33.15,0,.35-.1.8.32,1.06,0,.39v1.49l0,.11-.07.06-.25,0-.07.09,0,.2.11.35,0,.36.21.87.29.61.45.63,1.13,1.19.2.28.22.64.21.32.46.41.29.18,3,1.3,2.37,1.36.3.07.12.06.07.13,0,.16.07.11.16.11.52.24.12-.12,1.1.66.42.15h.18l.22,0h.2l.73.33.45.11,1.73.82.42.09.65-.22.81.18H138l.33-.39,1-2.81.15-.24.06-.17,0-.44,0-.14.19-.06.18.09.2.2h.64l.37,0,.16.15,0,.2.23.62.07.28-.05.68-.24.5-.65.8-.28.44-.13.28,0,.26-.09.27-.15.25-.06.27.17.33.13.06.19.06.18.1.08.17,0,.17.08.17.09.14.1.06.36,0,.24.11.16.18.12.25.09.33,0,1.35.1.21.24.07.83.05.27,0,.26-.12.32-.3.26-.33,1-1.84,1.64-2.31,1.23-1.49.31-.72.12-.5.06-.14,0-.18-.11-.35.06-.17.18-.31.07-.37v-.35l-.06-.3L148,259l-.14-.21-.06-.12,0-.18,0-.38v-.2l-.07-.14-.18-.23-.49-1-.07-.25v-.66l-.11-.3-.28-.3-.35-.14-.32.21-.44-.46-.74-.93-.56-.37.05.47-.22.11-.28-.12-.14-.16,0-.34-.23-.66,0-.29,0-.8.15-.8.24-.74.37-.63.76-.93.19-.16.06-.38.06-.74.38-.63.54-.25.57-.14.48-.27.61-.58.08-.18,0-.15.15-.2.05-.16,0-.35-.1-1.12.06-.37.19-.34.33-.3,1-.56,1-.74.31-.08.34.09.13.25v.33l0,.38v.69l.69,1.65.11.69.09.25.2.28,1,1,.2.36V247l-.15.79.11.31.66.93.33.19.43.13.2.09.06.2v.44l.05.38.18.6v.38l-.2,1.05,0,.4.22,2.13.08.35.22.28.43.79v.19l0,.2V257l.07.16.58.4,0,.19.08.86.05.24.25.06.1-.27.08-1.55.28-1.34,0-2.5.26-1.49.22-.7,0-.37-.17-.17-.32-.22-.3-.28-.26-.61-.24-.33-.18-.37.07-.35.18.24,0,.11h.13l0-.72.36-.15.51.25.43.5.4,1.09.29.48.52.19.13-.14,0-.31,0-.36-.07-.25-.15-.16-.46-.39-.1-.2,0-.44.1-.51.25-.5.43-.37.5.21.66.13.58-.06.25-.33,0-.61.13-.47.25-.38.55-.51.11-.18.35-.91.09-.15.13-.08.15,0,.13,0,.06-.13.08-.31.41-.53.09-.33ZM64.83,144.67l.16.54L65,146v.16l0,.11-.08.09-.08.12,0,.15.28.45,0,.2,0,.2.09.33,0,.19.09.4.25.09h.33l.39.15.24.28.29.6.45.52.16.31.1.33,0,.35-.18.72,0,.41.16.18.22.14.72,1.23.09.11.14,0,.44.41.21.38.3.32.35.29.27.15v-.33l.12,0,.35.26v.05l.1.3.12,0h.11l.14.06-.25.11-.21,0-.15-.15-.11-.28-.12.46.09.5.25.41.31.16h1.06l.23.1.38.37H73l.48-.94.31-.3L74,156l.22-.05.41-.36.24-.12.19.28.51.31v-.18l0-.13-.07-.09-.15-.08.09-.16,0-.16,0-.15-.09-.11,0-.3.32,0,.68.19v-.12l-.31-.32-.22-.53v-.49l.31-.2L76,153l0-.1,0-.09.06-.11.11.12.12-.12-.08-.13,0-.12v-.28l0-.16h.07l.11,0,.14,0,.42-.28.2-.18.66-1,.1-.07H78l0,0,0-.45,0-.12-.17-.28-.09-.27-.06-.28,0-.22-.07-.12-.46-.59-.16-.39,0-1.09-.1-.48H77l0-.23.16-.72V145L77,143.91v-.41l.11-.39.21-.3.58-.39.23-.24.06-.36-.14-.33-.3-.18-.38-.08H77l-.2,0-.19.07H76.4l-.19-.12-.06-.18,0-.18.08-.19,0-.18,0-.37-.17-.26-.28-.15-.37-.05-.27-.16-.72-1.14-2-1.62-.36-.64H72l-.13.22-.19.12-.22.06-.17.08-.13.1,0,0-.07.11,0,.1,0,.26,0,.11h-.12l.07-.56-.28-.2-1.13.05-.26-.15-.4-.66-.15-.15-.17-.07-.2-.18-.17-.2-.1-.15.16,0,.12-.06.1-.12.08-.15-.09-.06,0-.07-.14.06h-.08l-.24-.07-.09.31-.13.09-.15,0-.22-.2-.46.26-1.51.35-.5.19-.26.07-.3,0-.3-.29-.22-.09-.28.15-.23-.2-.4-.06h-.66l-.33,0-.17-.05-.33-.2h-.17l-.19,0-.21,0-1,0-1.16-.28-.39,0-.4.14-.33.23-.27.3-.18.36L57,136l0,.29.13.28.19.25.21.19.26.1.21-.05.34-.28.08-.08,0-.1.08-.09.14-.1.11,0,.3-.07h.12l.22.13.12.28.14,1.22.2.56.34.49.45.42-.19.32.18.08.58-.05.29.13.3.38.82.28.38.48.54,1.1.75,1,.3.54Zm74,47.43.57.2-.12-.26-.12-.48,0-.5.12-.36.31,0,1.19.47.53-.11.22-.3,0-.38,0-.39-.05-.46-.07-.32-.13-.25-.21-.26h-.12l-.13.19-.22-.19-.23-.35-.11-.25,0-.24,0-.64,0-.23-.16-.38,0-.22.18-.86,0-.35-.34-.14-.07-.14-.68-.8-.11-.5-.06-.14-.14-.07-.42-.13-1-.48-.23-.21-.13-.73L137,181l.69-2.12v-.73l-.24-1.6,0-.55-.05-.16-.16-.34,0-.2,0-.1.16-.28.06-.15V174h-.13l0,.2-.08.14h-.08l-.07-.43-.09-.07h-.15l-.2-.07-.09-.06-.06,0-.06,0-.08-.08,0-.08,0-.17-.05,0,0-.09,0-.2,0-.21.16-.28.11-.4,0-.41-.13-.18-.12-.07-.36-.31-.17-.1-.14,0-.44,0v0l0-.07,0-.08-.11,0-.07,0V171l-.06,0-.21,0-.34-.15-.15,0L134,171l-.66.91-.84.74-.53.3-.6.15-.82,0-.61-.26-.41-.47-.42-1.07-.2-.22-.51-.38-.24,0-.1.32-.06.74-.63-1.07-.31-.36-1-.83-.44-.6-.19-.11-.05.05-.35.18-.08,0-.06.28.24,1,.25.39.05.25.11.21.16.18.06.14-.23.12.13.12.2.09.27.08,0,.16-.25.17-.06.15.1.32.24.3.31.18.3,0v1.58l.12,1.08.09.21,0,.13,0,.11-.16.24-.1.27-.12.2-.09.26,0,.28.15.23.16.12.12.16,0,.32,0,.28-.23.32-.08.22,0,.34.1.07.18,0H127l.21,0,.09.06.08.49.09,0,.29-.08,0,0,.63.48.12,0,.23-.08.18-.18.25-.34.16-.4-.08-.32-.19-.31,0-.26.22-.19.33-.12.34,0,.34,0,.25.13.11.29.12.11.7.54.45.59.18.33.07.31.09.11.6.53.09.17.37,1.66v.8l-.05.33-.43,1.06-.07.34,0,.77,0,.12-.23.27-.09.15,0,.13-.12.79,0,.47.05.43.19.18.36.16.24.39.12.46,0,.4-.14.64-.24.69-.1.67.25.59.25.14.34.07.76,0,.39.06.19.15.14.23.27.27.17.06.24,0,.2.1.09.23,0,.09.91.71.28.1.17-.15v-.35l-.2-.77-.1-.72-.42-1.09-.11-2.32-.23-.51.19-.29.33,0,.33.13.21.19v.62l.06.09,0,.06.26.35.12.55.33.66Zm-22.52-.5.26-.18.39-.06.43,0,.2-.1.36-.59.28-.21.93-.49.21-.06,0-.61,0-.15.11-.11.11,0,.07.12,0,.2.37-.26.07-.14-.15-.24v-.16l.45-1.08.06-.3,0-1.35,0-.1-.1-.05v-.08l.06-.08.13-.09.12-.06h0l-.07-.64-.46-1.39,0-.68.1-.37.3-.69,0-.42.06-.19.24-.4.06-.17,0-.19-.21-.41,0-.3.1-.55,0-.38-.17-1,0-.35-.15.06-.15,0-.34,0-.06-.05,0-.12L120,177l-.16-.07.19-.3.52-.61.1-.32.07-.63.07-.34.22-.49.07-.49,0-.12-.5-.14-.46.32-.82,1.1-.2.32-.11.33.06.25.09.2.21.92-.23-.14-.07-.08-.06-.13h-.12V177l-.15.25-.19.22-.11.3.21.61.07.4-.32.53-1.13,3.22-.3.47-.65.72-.26.36-.23.38-.17.7-.43.52-.17.35,0,.2.13.56,0,.18-.08.12-.08.09,0,.08-.08.26-1.43,1.92-.29.3L113,190l-.27,1.09-.82,1.1-.2.77-.23.4-.61.66-.62.49-.23.3-.08.45v.37l0,.15-.07.12-.05,0-.07-.09-.09-.06-.15.07-.05.12-.06.53.07.09.32.17.08.08,0,.43-.07.33-.68,1.6-.86,4.76v.37l.13,1,.1.36.25,0,.28-.15.19-.17.9-1.06.23-.38.15-.2.14-.12.3-.18.15-.17.15-.3.26-.84.09-.65,1.58-3.67.07-.06.16-.06.16-.08.07-.14,0-.35.21-.9v-1.35l0-.14,0-.15.08-.14.07-.09.12-.09.2-.08.14-.08.21-.17.15-.2.08-.26,0-.36.14-.26.92-.74Zm-31-6.11-.67,1.26-.05.73.34.57.55,0,.57-.26.4-.36,1.07-1.77.46-.36.22,0h.16l.18,0,.2-.12.69-.58.2-.13h.2l.18.06h.19l.15-.08.24-.2.18-.07.19,0,.58,0,.09,0,.23-.17.14,0,1.46-.23,1.59-.06.77-.16.08-.38.17-.11,0-.11,0-.08,0,0,.15-.26.08-.09.27-.23.21-.12.21-.09.19,0,.34-.2.13,0,.14,0,.28.16.16,0,.28-.11.28-.26.44-.58.19-.53L99.3,180l-.15-.43-.09-.54.16-.33.38-.38.47-.34.39-.19V178l.38-.31.09,0,.18,0,.11.08.12.06.18,0,.1-.13,0-.37.08-.09.16,0,.07.11v.17l0,.18.37-.23.08-.14-.09-.22.4-.16.34-.21.23-.32.21-.92.33-.1.43.11.38.19.06-.28.34-.25.08-.24-.06-.24-.11-.11-.13-.08,0-.16,0-.62,0-.27.1-.33v0l0-.46,0,0,0-.13,0-.12.06-.07.31-.06,0-.07v-.09l.19-.32v-.24l-.07-.5.07-.27.14-.25.1-.24-.08-.23-.38.07-.13-.05.16-.26-.19,0-.16,0-.11-.08v-.17l.09-.12.17,0,.19,0,.14,0,.13-.27,0-1h-.11l-.25.43-.41.43-.49.32-.77.23-.61.5-.45.11-.45.17-.47.34-.46.23-.41-.16,0-.32.32-.37.86-.61-.76-.31-.23,0-.2-.09-.1-.21-.09-.27-.14-.27-.42-.24-.63-.12-.65,0-.52,0,0,.07,0,.06.06.05,0,.16-.33.38-.14.09-.12.06,0,.1.17.22h-.19l-.12-.06-.21-.25L97,168.5l-.11.05-.07.28,0,.11,0,.15v.15l-.22.1-.22.17-.1,0-.31-.15-.11-.25,0-.29-.11-.25-.27-.21-1-.39-.8-.82-.19-.13-.23-.08-.22-.19-.68-1-.18-.09-.7-.06-.24-.1-.37-.34-.59-.41-.62-.24-1.89-.41-.4-.2-.37-.25-.33-.3-.39-.51-.18-.12-.59-.17-.07-.08-.06-.11-.09-.11-.14-.06H85.1l-.1.1-.11,0-.12.07-.23.33-.11.07-.25,0-.14.07L84,163l-.06.24,0,.2v.35l0,.35-.07.15-.12.09-.2.21-.17.23,0,.18.19.12.29,0,.64,0,.36,0,.29.08.58.24.63.12.53,0,.41.15.3.54.09.61-.37,2.82-.08.12-.08.09,0,.09-.13,2-.08.36-.19.32-.15.35,0,.39.11.39,0,.37v2.93l-.14.79-1.14,1.93-.31.89-.1.52-.24.51,0,.31.12.38.48.49.1.26.12,1.08v.38Zm8.41,16.45.51,1.06.14.16.19.06.24.19.37.8.31.27.35.42.15.31.18,0,.23,0,.21.05.11.11.12.16.13.14.16.07.24.06.75.4.34.07,1.13,0,.28.09.3.2.41.41.19.29.1.3.1,1.15.7,1.71.41.69.56.55.73.23.16,0,.26-.17.37-.06.34-.16.21,0h.6l.23-.07,1.18-.72.14-.21.08-.28.94-1.34.33-.72.17-.78-.11-.7-.28-.32-.35-.3-.3-.32-.26-.79-.32-.26-.36-.22-.24-.25-.1-.39,0-.29-.15-.19-.47-.06-.3-.19.14-.36.29-.18.16.36.12-.46-.72-.49,0-.45.13-.08.15.05.13,0,0-.25,0-.17.1-.41-.23-2.94.09-.39.23-.31.49-.53.23-.77,0-.09.13-.09.11-.13L107,195l.78-1.15.1-.31.06-.34v-.41l.07-.4.53-1.06.08-.35,0-1.13,0-.37.59-1.26.18-.27,1.42-1.54.21-.38.53-2.27.28-.69.48-.67.16-.33.08-.8,0-.09-.06-.07h-.12l0,0-.24-.32-.09-.16-.11-.68-.22-.26-.33-.13-.6-.16-.18-.06-.19,0-.25,0-.17.12-.14.15-.12.07-.16-.1,0-.18.1-.16,0-.13-.23-.12-.18,0-.43.19-.2,0-.22-.09-.29-.27-.2-.13h-.4l-.12-.05-.08-.12,0-.12,0-.06-.79,0-.74.34-1.39.88-.35.12-.33.07-.78,0-.14.11-.47.52-.14.2-.07.15,0,.14,0,.36.06.08.25.19,0,.09.07,1.09-.07.37-.63,1.08v.16l-.4.89-.61.61-.09.16-.14.11-.32.08-.32.15-.15.3.12.73.64,1.34.17.76-.24,2.1.12.73.23.73,0,.43-.1.3-.47.57-.31.16-.33-.19-.44.28-.91.95-.35.19-.86.18-.24.15-.29-.13-1.12-.22h-.38l-.72.17-.35.05-.23.14-.29.76L92.7,198l-.18.18v.11l.24.48v.56l-.09.63,0,.68.1-.06.27-.12.11-.07v.26l-.1.45,0,.24.09-.07.17-.1.09-.07.3.3,0,.14-.12.15ZM46.2,186l-.15-.32-.13-.71-.24-.22,0-.12v-.1l0-.1-.1-.14.14-.06H46l.15.06-.25-.4h-.21l-.24.13-.35,0-.26-.11v-.17l.1-.26.07-.34v-.65l-.12-.53.05-.2.09-.23v-.24l-.15-.22-.08.05-.06,0-.21,0-.08,0-.09.08-.13.08-.23,0-.17-.06-.13-.13-.08-.18-.06-.36-.15-.28,0-.17v-.2l.08-.34,0-.16v-.2l-.08-.37,0-.21,0-.22.19-.48.11-.1.24.08.36.2.19-.11,0-.13-.18-.75-.14-.23-.43-.38-.2-.4.07-.36.43-.7.26-.71.13-.71,0-.69-.25-.62-.08.08-.11.08,0,.08-.16-.12-.11-.16-.08-.19-.05-.19v-.41l0-.21-.07-.26-.12-.18-.18,0-.12.18-.07.25,0,.48-.06.18-.14.19-.27.28v-.08l-.08-.05h-.1l-.05.07v.11l0,.09-.06.07-.08.08-.08.28.13.82v.38l-.09.25-.17.28-.22.2-.22,0,.08.26.11.21.28.35,0,0L42,176l.11.2-.24.46v.47l-.06.2-.16.12h-.15l-.17-.07-.17,0-.24-.19-.25-.37-.23-.24-.15.22,0,.44.42.71.14.38h-.2l-.14-.06-.1-.13,0-.19h-.12V178l-.1.25,0,1,.1.17h.22l.24,0,.15,0,0,.09-.17.34,0,.16.14.35.25.18.3,0h.29l.23.07.29.15.25.18.12.18-.08.1-.14.25-.08.25.11.12.24.53.1.14.06.16,0,.14-.18.09h-.2l-.07-.09,0-.13-.1-.21-.13-.17-.13-.13-.1.15-.13,0-.12-.1,0-.18-.15-.26-.3-.13-.29-.16-.07-.35h-.13v.13h-.11l-.22-.27-.17-.14-.07-.17.11-.36-.2.09-.2,0-.18-.06-.12-.17h.35l-.23-.48.11-.08.05-.05.07-.21h-.12l-.11.09h-.09l-.08-.07-.07-.14-.09.17,0,.07H39l-.06-.41-.26,0-.16.17.25.15-.14.28.13.14.21.1.15.19-.09.07-.5.63.25.09.27.14.21.18.09.24,0,.48.06.23.19.17h.11l.18-.18.13-.05.12.05.09.12.06.15.07.1.21.26,0,.22-.44,2.29-.16.27-.32.29-.36.16-.32-.13-.06.22.15.21.21.19.17.2-.25.24-.57.15-.17.38-.14.06-.16,0-.12.06-.06.09-.17.39-.5.46-.29.18-.14-.11-.15-1-.08-.21,0-.11,0-.07,0-.19-.16.12-.34.13-.1.12,0,.23.1.12.16.12.12.23-.38,0-.09.12v.19l-.12.23-.21-.12-.27-.1-.27-.06-.27,0-.17.13-.21.25-.17.26-.06.18.14.23.2,0,.2-.14.17-.06.27.14-.06.18-.14.23.05.27-.26.06-.28.1-.23.14-.16.17-.13-.07h0l-.05,0-.12,0,.12.23.06.28,0,.3-.15.26-.27.18-.26,0-.47-.09-.26.06-.35.24-.2.06-.36,0-.11.09-.06.29v.35l.09.26.32.58,0,.05v.07l-.09.21-.07.08-.12.09-.11.11-.05.14-.19.17-.37-.12-.27-.22.08-.12.15-.12v-.27l-.08-.55-.14.17-.59,1.29-.11.17-.83.41-.29.27.19.38-.18.15-.62.83-.13.28-.09.26,0,.19-.19.29-.8.77-.19.47-.12.19-1.35,1-.14.16-.11.08-.11,0-.09,0-.07.29-.08,0-.12,0-.13.06-.31.25-.19.06-.19-.07-.19.22-.06.17v.38l0,.18-.08.11-.09.09,0,.08-.11.13-.48.42-.35.6-1,.71-.39,1-.37.25-.4.19L20,206l0,.2.07.37,0,.14-.11.1-1.24.79-.16.16-.32.48-.16.18-.22.17-.15-.08-.08-.14,0-.16,0-.2-.4.18h-.37l-.68-.08-.25.18-.4.8-.28.19-.23.07-.68.43-.21.21.09.15,0,.13-.06.12-.09.09,0,0-.21.58-.11.14-.2.15-.15.06-.2,0-.16,0-.07-.11-.06-.16-.14,0-.21.17-.39,0-.23.14-.13.26-.13.38-.3.5L10,213.89l-.42.44-1.17,1.86-.26.31-.3.23-.71.21-.28.27-.35.55h.23l-.18.26-.25.26-.26.21-.18.09-.17.18-.08.35-.12.26-.27-.09.07.34,0,0-.37.58-.15.33-.09.42-.15.1,0,.09v.53l0,.36,0,.17-.07.08-.12.11-.11.14-.09.36-.16.33,0,.2,0,.48.12.06.42-.49.45-.34.25-.23.11-.29.58-.18.06-.08.13-.29,0-.09.46-.34.57-.25,1.59-.47H9l.08.16.08.07.16,0,.17-.1.07-.19.1-.37.46-.62.14-.35,0-.72.15-.39.39-.17,1,.14.36,0,.31-.1.21-.11.22-.1.37,0,.38-.09.31-.21,1.13-1.23,1.2-.94,1.53-.81.22-.18.77-1.11.37-.75.15-.4.06-.32,0-.13.11,0h.11l.07,0v-.09l0-.19v-.07l.23-.46.1-.52.08-.07.45-.21.14-.09.3-.14,1,0,.19-.08.38-.23.18,0h.71l.3-.07.19-.17.26-.46.86-.91.25-.15.16,0,.63-.42.1-.08.65-.87.19-.32.07-.31.1-.18.59-.59,1.31-2.12.1-.07.34-.07.06-.1,0-.13.08-.15.17-.22.16-.31.11-.33,0-.25.44,0,0-.26-.27-.24-.44.08.07-.2,0-.17-.11-.13-.19-.1.06-.25-.06-.31,0-.26.2-.11.29,0,.07.08-.06.31.09.24.23.19.27.07L31,200l.12-.92-.16-.45L30.6,198l-.06-.54.11-.44.29-.36.37-.19.39.1.5-.34.45-.22.47-.12.83,0,.36-.06.19-.05.19-.08.34-.2.17-.07.19,0,.42,0,.19,0,.18-.08.34-.2.19-.08.78-.21.63-.26.41-.48.28-1.63.34-.73.49-.68,1.19-1.16.38-.26.34-.11.34-.07.52-.32.24-.09h.17l.27.1.2,0H44l.36-.05.22-.12.3-.42.79-.68.14-.09.34-.53.18-.08.4-.09.13-.06.26-.42-.19-.24Z"/></g></g></svg>